<svg width="23" height="22" viewBox="0 0 23 22" fill="none" xmlns="http://www.w3.org/2000/svg">
<path d="M11.9169 1H11.9164C8.86955 0.998773 5.82795 1.25371 2.82377 1.76213L11.9169 1ZM11.9169 1C15.0155 1 18.0537 1.26139 21.0095 1.76186C21.2639 1.80612 21.4945 1.93888 21.6606 2.13672C21.8269 2.3349 21.9177 2.58558 21.9169 2.84432V2.8476V4.02523L22.9169 4.02544M11.9169 1L21.9169 4.02544M22.9169 4.02544C22.9167 4.92303 22.56 5.78378 21.9252 6.41837M22.9169 4.02544V2.8476L21.9252 6.41837M22.9169 4.02544H21.9169M21.9252 6.41837L14.9506 13.3929L21.9252 6.41837ZM21.9169 4.02544C21.9167 4.65776 21.6654 5.26411 21.2182 5.71116L21.2181 5.71126L14.2435 12.6858L14.2433 12.6861C13.9933 12.9362 13.7951 13.2331 13.6599 13.5599C13.5247 13.8865 13.4552 14.2365 13.4553 14.59C13.4553 14.5901 13.4553 14.5903 13.4553 14.5904V17.8922V17.8925C13.4554 18.3354 13.3322 18.7697 13.0994 19.1465C12.8667 19.5232 12.5337 19.8277 12.1377 20.0258C12.1376 20.0259 12.1375 20.0259 12.1374 20.026L10.3784 20.905V14.59V14.5891C10.3778 13.8754 10.0938 13.1912 9.58889 12.6868C9.58881 12.6867 9.58873 12.6866 9.58864 12.6865L2.617 5.71036L2.61666 5.71003C2.16948 5.26298 1.91816 4.65663 1.91797 4.02432C1.91797 4.02425 1.91797 4.02417 1.91797 4.0241V2.8476C1.91797 2.30984 2.30015 1.85113 2.82341 1.76219L21.9169 4.02544Z" fill="#3691D6" stroke="#3691D6" stroke-width="2"/>
</svg>
