<svg width="379" height="247" viewBox="0 0 379 247" fill="none" xmlns="http://www.w3.org/2000/svg">
<path d="M436.655 183.015C441.315 182.214 445.536 179.826 448.572 176.274C451.609 172.722 453.266 168.234 453.252 163.602V159.927C453.252 159.927 453.252 159.927 453.252 159.809V-20.6904H422.588V145.956C422.347 147.921 422.588 151.851 418.674 151.851H331.638C330.755 151.989 327.625 158.945 327.625 167.571C327.625 176.197 330.775 183.074 331.638 183.29H430.535C431.377 183.271 436.655 183.015 436.655 183.015Z" fill="#A9E7FF"/>
<path d="M330.034 166.805H424.355C438.001 166.647 438.623 156.882 438.623 147.155V-20.6904H422.568V145.956C422.328 147.921 423.13 151.851 416.648 151.851H331.78C331.78 151.851 331.78 151.851 331.659 151.851C330.776 151.851 327.646 158.611 327.646 167.04L330.034 166.805Z" fill="white"/>
<path d="M381.529 151.72C382.311 151.72 384.017 158.283 384.037 166.457H380.545L381.468 183.1H133.646V151.661L381.529 151.72Z" fill="white"/>
<path d="M236.819 72.6925C235.591 72.4502 234.331 72.3972 233.086 72.5353C231.601 72.7318 230.819 71.8475 232.043 71.2384C233.661 70.5238 235.406 70.1234 237.18 70.0594C238.696 70.274 240.175 70.6905 241.575 71.2973C240.05 71.1402 237.822 70.7668 237.842 68.8805C237.842 67.3085 238.986 67.7605 239.428 68.4678C239.869 69.1752 245.448 71.5921 247.455 73.4588C248.077 73.7339 248.699 74.009 249.301 74.2448C250.447 74.5411 251.628 74.6865 252.813 74.6771C254.961 74.5592 250.566 84.993 250.566 84.993C249.383 83.8928 248.085 82.918 246.693 82.0849C246.472 81.9866 240.331 81.1614 239.588 81.1417C238.906 81.1359 238.228 81.0231 237.582 80.8077C235.925 80.3203 234.35 79.5987 232.906 78.6659C231.802 77.0546 237.662 78.6659 237.662 78.6659C236.649 78.1847 235.566 77.8599 234.451 77.7031C233.324 77.5636 232.235 77.2169 231.24 76.6813C229.474 75.2665 235.996 75.5023 237.26 75.8167C236.301 75.3766 235.279 75.0786 234.23 74.9325C230.217 75.3844 230.217 74.0876 230.919 73.616C232.811 72.9552 234.811 72.6421 236.819 72.6925Z" fill="#F7530B"/>
<path d="M298.27 71.2938C294.578 67.5604 276.817 80.4701 270.175 79.527C263.623 77.9081 257.181 75.8868 250.889 73.4749C248.079 72.3549 249.825 88.4478 249.825 88.4478C255.288 91.0995 261.16 92.8521 267.204 93.6353C275.232 94.3426 295.44 90.7075 298.912 87.426C302.384 84.1446 298.27 71.2938 298.27 71.2938Z" fill="#000F66"/>
<path d="M210.77 133.424C210.77 135.232 219.961 136.686 231.32 136.686C242.678 136.686 251.85 135.232 251.85 133.424C251.85 131.616 242.658 130.143 231.32 130.143C219.981 130.143 210.77 131.616 210.77 133.424Z" fill="white"/>
<path d="M212.276 134.137C212.276 135.65 220.805 136.868 231.321 136.868C241.837 136.868 250.346 135.65 250.346 134.137C250.346 132.624 241.817 131.405 231.321 131.405C220.825 131.405 212.276 132.624 212.276 134.137Z" fill="#4799B2"/>
<path d="M215.707 -20.8408H246.934V159.325H215.707V-20.8408Z" fill="white"/>
<path d="M234.712 -20.8408H246.934V141.464H234.712V-20.8408Z" fill="#A9E7FF"/>
<path d="M231.32 137.179C242.016 137.179 250.686 137.179 250.686 135.666V151.602C250.485 154.097 241.916 156.121 231.34 156.121C220.764 156.121 212.175 154.156 211.974 151.602V134.565C211.934 136 220.603 137.179 231.32 137.179Z" fill="#A9E7FF"/>
<path d="M211.954 151.603V138.536H220.322V155.297C215.345 154.491 212.074 153.136 211.954 151.603Z" fill="white"/>
<path d="M210.77 140.069V133.133C210.77 134.705 220.001 136.65 231.34 136.65C242.678 136.65 252.01 134.685 251.85 133.152V140.069C250.987 142.034 240.952 143.999 231.42 143.999C221.888 143.999 212.676 141.72 210.77 140.069Z" fill="white"/>
<path d="M251.85 135.018V140.284C250.987 142.249 240.953 144.214 231.42 144.214C228.506 144.207 225.596 144.003 222.711 143.604V137.71C225.4 137.965 228.39 138.122 231.581 138.122C241.815 138.063 250.385 136.354 251.85 135.018Z" fill="#A9E7FF"/>
<path d="M142.275 166.435H383.977C384.238 166.435 383.977 167.182 383.977 167.437C383.977 176.122 382.271 183.157 381.488 183.157C381.449 183.17 381.407 183.17 381.368 183.157H142.275V166.435Z" fill="#A9E7FF"/>
<path d="M322.711 219.074C323.012 221.943 324.497 230.235 323.473 234.145C323.112 235.501 319.64 234.793 317.453 235.245C315.543 235.28 313.638 235.45 311.753 235.756C306.49 237.105 300.962 237.105 295.699 235.756C294.615 235.127 294.314 230.372 297.505 228.25C299.993 226.58 307.8 225.912 308.703 224.084C309.606 222.257 311.151 217.698 311.151 217.698L322.711 219.074Z" fill="#282626"/>
<path d="M271.718 137.06C271.718 137.06 276.193 150.579 282.334 166.102C284.02 170.366 291.666 191.882 294.375 194.142C297.084 196.401 302.803 225.954 302.803 225.954C302.803 225.954 324.878 232.713 326.464 230.08C328.049 227.447 319.32 188.502 312.015 182.116C306.657 160.344 295.137 134.054 290.923 129.907C286.709 125.761 271.718 137.06 271.718 137.06Z" fill="#000F66"/>
<path d="M277.296 165.361C283.437 174.36 289.839 189.137 292.127 191.632C293.83 193.202 295.147 195.131 295.98 197.271C297.505 200.533 302.863 225.96 302.863 225.96C305.951 227.494 309.283 228.504 312.716 228.946C315.707 229.182 291.625 171.354 287.009 163.848C282.393 156.342 277.296 165.361 277.296 165.361Z" fill="#0D2E99"/>
<path d="M260.117 221.965C260.117 224.854 260.739 233.244 259.294 237.036C258.812 238.353 255.421 237.312 253.274 237.528C251.37 237.386 249.458 237.386 247.554 237.528C242.147 238.339 236.617 237.771 231.5 235.877C230.496 235.13 230.677 230.375 234.068 228.568C236.737 227.172 244.584 227.29 245.668 225.542C246.751 223.793 248.758 219.45 248.758 219.45L260.117 221.965Z" fill="#282626"/>
<path d="M273.002 114.268C269.43 123.778 272.239 126.294 270.453 135.057C270.453 135.057 263.229 181.371 259.395 189.643C255.562 197.916 245.629 228.038 245.629 228.038C245.629 228.038 259.255 236.881 263.088 236.881C266.921 236.881 278.942 192.355 279.745 189.408C285.103 169.129 292.207 159.933 297.585 147.908C302.964 135.883 304.589 130.675 300.897 121.499C297.204 112.323 273.002 114.268 273.002 114.268Z" fill="#000F66"/>
<path d="M269.09 115.371C269.09 120.264 270.073 129.99 269.552 133.056C269.03 136.121 259.939 173.258 259.517 177.562C258.374 191.08 243.222 226.39 243.222 226.39C243.222 226.39 251.089 232.403 252.233 231.263C253.377 230.124 264.133 190.707 267.585 180.175C271.037 169.643 275.311 140.149 277.619 135.472C279.927 130.796 279.907 121.718 278.382 119.065C276.856 116.413 269.09 115.371 269.09 115.371Z" fill="#0D2E99"/>
<path d="M295.037 54.4717C295.658 57.2847 296.699 59.9927 298.127 62.5083C301.639 69.5231 301.378 70.7611 301.378 70.7611L286.829 77.6384C286.829 77.6384 284.341 65.8487 281.591 64.2374C278.842 62.6262 295.037 54.4717 295.037 54.4717Z" fill="#E5C0AE"/>
<path d="M272.882 56.5945C273.357 54.7518 273.713 52.8813 273.946 50.9944C273.105 49.5713 272.601 47.9822 272.469 46.3435C272.337 44.7047 272.581 43.0578 273.183 41.5234C273.183 41.2679 274.447 41.3662 274.969 40.9732C278.481 35.2159 295.72 33.1134 297.747 42.9381C301.58 61.1139 284.421 64.9848 280.327 65.7315C279.585 65.869 277.999 65.5743 277.157 62.0767C276.358 60.9243 275.685 59.6927 275.15 58.4023C273.926 58.2058 272.982 57.6949 272.842 57.0268C272.813 56.9569 272.801 56.8811 272.808 56.8059C272.815 56.7306 272.84 56.6581 272.882 56.5945Z" fill="#E5C0AE"/>
<path d="M294.194 36.3775C292.187 35.1199 291.103 32.1528 285.444 33.6069C280.567 34.8448 274.788 35.6701 273.002 39.8358C271.216 44.0015 270.634 45.0232 270.634 45.0232C270.634 45.0232 268.627 46.0254 271.476 46.6148C272.701 46.8703 277.637 44.1783 279.504 46.045C280.704 47.1164 282.099 47.9564 283.618 48.5208C283.618 48.5208 288.294 50.25 288.615 51.7826C289.3 53.6369 290.312 55.3593 291.605 56.8718C293.714 58.2805 296.135 59.1764 298.669 59.4852C298.268 55.951 298.437 52.3769 299.171 48.8942C300.636 40.4842 297.023 38.2049 294.194 36.3775Z" fill="#300901"/>
<path d="M285.423 50.3145C285.162 46.1488 289.196 48.4675 289.196 49.6857C289.196 50.904 290.179 54.6177 287.932 55.5806C285.684 56.5434 285.423 50.3145 285.423 50.3145Z" fill="#E5C0AE"/>
<path d="M275.532 82.5786C278.261 77.7252 280.91 76.4676 282.897 74.2669C284.442 72.577 287.071 71.2998 293.934 66.8983C295.598 65.6896 297.519 64.8635 299.553 64.4814C301.643 67.2933 303.238 70.4282 304.269 73.756C306.798 80.8101 306.276 87.0783 302.764 98.7304C299.553 109.145 309.547 119.775 299.814 123.862C291.205 127.478 278.221 126.495 275.09 125.689C272.886 125.262 270.897 124.111 269.451 122.428C267.344 115.708 268.929 96.0385 275.532 82.5786Z" fill="#000F66"/>
<path d="M299.131 44.6453C301.378 45.6081 302.863 47.6123 301.579 48.1625C300.295 48.7127 294.595 48.1625 289.94 47.8678C284.542 47.8679 279.159 48.4345 273.885 49.5576C273.143 49.8359 272.349 49.9553 271.557 49.9078C270.764 49.8604 269.991 49.6472 269.289 49.2825C267.784 48.5555 264.473 46.453 266.319 45.1758C268.482 44.1049 270.83 43.4385 273.243 43.2109C275.791 42.7393 292.769 41.9336 294.836 42.9358C296.215 43.626 297.651 44.198 299.131 44.6453Z" fill="#FF960B"/>
<path d="M301.499 48.1263C300.214 48.6765 294.535 48.1263 289.859 47.8316C284.461 47.8477 279.08 48.4207 273.804 49.5411C273.064 49.8103 272.275 49.9249 271.487 49.8775C270.699 49.8301 269.93 49.6218 269.229 49.266C267.884 48.6176 265.376 46.9867 265.857 45.6309C266.626 46.8681 267.759 47.8479 269.108 48.4407C269.81 48.8037 270.582 49.0176 271.374 49.0684C272.166 49.1192 272.96 49.0057 273.704 48.7355C278.979 47.6135 284.361 47.047 289.759 47.0456C294.414 47.2814 300.094 47.8709 301.398 47.3207C301.499 47.2889 301.591 47.2352 301.667 47.1638C301.744 47.0924 301.803 47.0049 301.84 46.9081C302.081 47.4386 302.04 47.9298 301.499 48.1263Z" fill="#F7530B"/>
<path d="M288.013 45.7155C284.662 45.7155 278.822 46.0889 275.772 46.3443C274.759 46.4561 273.733 46.3695 272.755 46.0895C271.776 45.8095 270.864 45.3417 270.072 44.7134C270.072 44.1829 270.293 42.0411 270.353 41.5106C271.377 34.5154 278.642 29.7209 286.609 30.8213C292.489 31.6269 297.385 34.5743 298.991 39.3295C299.517 41.7105 299.853 44.1282 299.994 46.5605C296.041 45.8757 292.026 45.5925 288.013 45.7155Z" fill="#F7530B"/>
<path d="M273.986 44.0092C273.986 44.3825 273.725 45.5615 273.645 46.4261C272.316 46.1999 271.087 45.5911 270.113 44.6773C270.113 44.1664 270.334 42.005 270.414 41.4744C271.417 34.4792 278.682 29.6848 286.649 30.7851C290.191 31.1706 293.523 32.6266 296.182 34.9508C294.114 34.0493 291.945 33.3898 289.72 32.9859C287.946 32.6828 286.128 32.7286 284.372 33.1205C282.616 33.5125 280.958 34.2428 279.493 35.2689C278.029 36.2949 276.788 37.5962 275.842 39.0968C274.897 40.5974 274.266 42.2674 273.986 44.0092Z" fill="#FF960B"/>
<path d="M297.947 61.2549L301.318 65.4795C301.318 65.4795 294.596 70.0382 294.114 71.1189C292.102 70.9364 290.074 71.0424 288.093 71.4333L288.415 74.6558C288.415 74.6558 277.839 78.1731 276.374 80.8454C278.14 76.9155 283.418 72.2193 286.147 70.3526C288.876 68.4859 297.947 61.2549 297.947 61.2549Z" fill="#0D2E99"/>
<path d="M235.594 93.457C234.345 93.5498 233.119 93.8349 231.962 94.302C230.597 94.8718 229.594 94.302 230.597 93.3195C231.96 92.1979 233.535 91.3499 235.233 90.824C236.744 90.6258 238.276 90.6258 239.788 90.824C238.303 91.0795 236.035 91.3152 235.534 89.4878C235.112 87.9748 236.316 88.1124 236.938 88.6822C237.561 89.2521 243.561 90.1166 246.029 91.3545L248.036 91.6296C249.256 91.6267 250.47 91.4681 251.648 91.158C253.655 90.4703 252.351 101.67 252.351 101.67C250.906 100.928 249.386 100.335 247.815 99.9021C247.575 99.9021 241.434 100.688 240.711 100.865C240.062 101.059 239.382 101.139 238.704 101.101C236.968 101.074 235.244 100.803 233.587 100.295C232.102 99.0375 238.203 99.1161 238.203 99.1161C237.092 98.9487 235.962 98.9487 234.851 99.1161C233.73 99.2928 232.585 99.2528 231.48 98.9982C229.473 98.0943 235.714 96.6009 236.979 96.5616C235.934 96.4147 234.873 96.4147 233.828 96.5616C230.075 98.0747 229.714 96.8171 230.296 96.1687C231.875 94.9519 233.672 94.0324 235.594 93.457Z" fill="#FF960B"/>
<path d="M298.009 71.8637C292.791 70.9402 275.934 82.553 272.823 84.6555C269.713 86.758 250.748 89.0177 247.738 89.725C244.728 90.4324 249.183 105.897 249.183 105.897C249.183 105.897 268.729 103.578 276.596 101.967C284.463 100.355 299.775 86.8366 300.678 82.1797C301.581 77.5227 298.009 71.8637 298.009 71.8637Z" fill="#0D2E99"/>
<path d="M152.592 144.392C156.165 144.961 158.994 155.081 158.994 167.519C158.994 179.957 156.165 190.096 152.592 190.666H132.745V144.392H152.592Z" fill="white"/>
<path d="M148.578 190.724H152.592H132.745V159.54H154.559C154.848 162.209 154.988 164.892 154.98 167.577C154.98 180.034 152.151 190.154 148.578 190.724Z" fill="#A9E7FF"/>
<path d="M125.703 167.578C125.703 180.409 128.713 190.784 132.426 190.784C136.138 190.784 139.148 180.409 139.148 167.578C139.148 154.747 136.138 144.392 132.426 144.392C128.713 144.392 125.703 154.786 125.703 167.578Z" fill="#8CD5F9"/>
<path d="M127.627 167.581C127.627 177.661 129.634 185.816 132.102 185.816C134.571 185.816 136.598 177.661 136.598 167.581C136.598 157.501 134.591 149.366 132.102 149.366C129.614 149.366 127.627 157.521 127.627 167.581Z" fill="#4799B2"/>
<path d="M98.4905 154.255C99.8122 154.278 101.125 154.045 102.355 153.57C103.584 153.095 104.706 152.386 105.655 151.485C107.643 150.453 109.286 148.884 110.391 146.965C110.812 146.16 113.261 149.146 112.137 149.539C111.013 149.932 112.739 152.369 112.739 152.369C114.2 153.204 115.584 154.164 116.873 155.238C117.096 155.778 117.174 156.364 117.1 156.942C117.026 157.52 116.803 158.069 116.452 158.539C114.946 160.17 107.421 160.858 105.896 161.034C103.975 161.698 102.116 162.52 100.337 163.491C99.534 163.687 98.4905 154.255 98.4905 154.255Z" fill="#000F66"/>
<path d="M58.9944 153.033C62.7472 155.548 66.7809 155.941 77.8184 155.744C79.7249 155.744 103.024 152.463 103.024 152.463L105.553 165.235C105.553 165.235 85.7654 169.302 82.3739 169.401C76.9354 169.578 53.4155 173.959 53.4155 173.959L58.9944 153.033Z" fill="#F7530B"/>
<path d="M65.256 139.266C64.1522 141.231 60.5199 143.196 57.891 144.807C51.3889 148.56 54.4392 151.92 54.4392 151.92L63.0084 160.526C63.0084 160.526 70.3734 152.667 73.3636 152.038C76.3537 151.409 65.256 139.266 65.256 139.266Z" fill="#D3A994"/>
<path d="M84.4396 147.872C84.5718 146.081 84.8334 144.301 85.2223 142.547C86.4215 141.524 87.3731 140.253 88.0083 138.825C88.6435 137.398 88.9463 135.85 88.8948 134.294C88.8948 134.038 87.8111 133.803 87.4699 133.272C86.1454 127.063 71.4154 120.028 66.4786 128.085C57.3275 143.175 70.4922 150.662 73.9239 152.568C74.3101 152.851 74.7549 153.049 75.2273 153.147C75.6997 153.244 76.1882 153.24 76.6585 153.133C77.1288 153.026 77.5697 152.82 77.9501 152.529C78.3305 152.238 78.6412 151.869 78.8606 151.448C79.9191 150.64 80.8938 149.731 81.7706 148.736C82.9144 148.933 83.9178 148.736 84.2389 148.206C84.2946 148.167 84.3414 148.117 84.376 148.06C84.4106 148.002 84.4322 147.938 84.4396 147.872Z" fill="#D3A994"/>
<path d="M71.7178 123.327C73.845 122.776 75.8318 120.477 80.4475 123.484C84.4611 126.078 89.3176 128.573 89.5986 132.837C89.7263 135.045 89.9943 137.244 90.4013 139.42C90.4013 139.42 91.6455 139.714 88.836 139.42C87.672 139.282 84.0798 135.372 81.792 136.472C80.3823 137.065 78.8707 137.392 77.3369 137.435C77.3369 137.435 70.895 139.262 70.1324 140.54C68.8454 141.364 67.4562 142.025 65.9983 142.504C65.0143 142.771 63.9822 142.821 62.9761 142.651C61.9699 142.481 61.0146 142.096 60.1785 141.522C60.1785 141.522 61.2823 140.874 62.7674 134.114C64.132 127.964 68.6072 124.113 71.7178 123.327Z" fill="#300901"/>
<path d="M74.7278 138.928C76.9353 135.627 72.6006 135.725 72.0186 136.963C71.5715 137.65 71.2748 138.42 71.147 139.225C71.0192 140.03 71.0631 140.852 71.2761 141.64C72.2193 143.644 74.7278 138.928 74.7278 138.928Z" fill="#D3A994"/>
<path d="M57.6294 228.589C56.8869 232.617 56.3049 236.94 59.295 236.94C62.2852 236.94 63.6297 235.899 67.7437 236.645C71.8577 237.392 83.7983 239.573 83.7983 236.645C83.8449 236.095 83.7766 235.541 83.5976 235.018C83.4186 234.494 83.1326 234.012 82.7571 233.6C82.3816 233.189 81.9244 232.856 81.4134 232.623C80.9024 232.389 80.3482 232.261 79.7847 232.244C74.5669 231.576 70.3727 223.637 68.4461 224.187C65.8774 224.914 57.6294 228.589 57.6294 228.589Z" fill="black"/>
<path d="M50.9673 189.055C55.9642 189.546 84.5414 178.582 87.0901 183.435C92.2677 193.26 86.8292 201.709 83.839 209.529C80.8489 217.35 78.0393 230.81 77.0961 232.008C75.7114 233.777 57.349 229.081 56.5061 227.528C54.2183 223.343 62.5266 207.152 65.9783 203.32C68.3263 200.746 55.2819 207.25 51.7901 208.154L50.9673 189.055Z" fill="#000F66"/>
<path d="M58.3529 142.564C53.9981 144.863 37.6626 155.592 29.1336 183.357C29.1336 183.357 46.593 200.373 50.1651 200.373C51.4896 195.559 69.7918 173.709 70.2333 160.603C70.4541 154.492 58.3529 142.564 58.3529 142.564Z" fill="#F7530B"/>
<path d="M15.4883 215.483C12.1168 212.555 10.2505 210.335 6.49769 210.708C2.74494 211.081 1.86194 213.184 1.86194 216.112C1.86194 219.039 0.637801 223.736 0.818415 227.194C0.938824 229.67 3.36707 235.054 11.9763 233.953C17.5754 233.207 11.2137 228.923 10.4712 226.094C9.7287 223.264 15.4883 215.483 15.4883 215.483Z" fill="#232121"/>
<path d="M47.9377 156.199C47.9377 155.728 41.9172 156.199 41.9172 156.416C27.5483 181.96 21.9493 195.184 26.4647 204.635C29.2233 209.972 33.4402 214.455 38.6461 217.584C37.0854 216.688 35.3721 216.076 33.5889 215.777C30.9399 215.285 22.5915 213.242 12.4972 210.727C8.96516 209.842 7.6206 225.582 11.1927 227.566C20.0228 232.439 43.041 236.448 47.3155 236.389C54.3796 236.389 56.2058 239.808 55.704 226.112C55.2023 212.416 55.2626 194.673 55.2626 194.673L62.166 172.41C62.166 172.41 49.2622 174.159 47.9377 156.199Z" fill="#0D2E99"/>
<path d="M11.512 231.992C29.1118 235.549 43.5008 237.887 50.5848 237.691C57.6689 237.494 65.5758 236.944 63.6493 225.665C60.7193 208.374 55.8427 199.178 55.8427 199.178L68.1445 172.71C68.1445 172.71 58.0101 171.688 52.2505 168.485C50.7053 171.393 43.9623 189.471 42.9991 193.224C42.5375 195.051 47.3338 204.66 49.9426 210.594C53.5549 218.827 59.3145 226.962 52.391 228.082C41.8953 229.752 15.9471 223.523 9.22426 220.222C7.89975 221.657 10.1072 231.717 11.512 231.992Z" fill="#000F66"/>
<path d="M39.3895 165.835C40.2725 161.905 46.5136 151.825 52.0123 149.074C60.461 144.83 65.0165 152.415 65.8795 160.373C66.7424 168.331 64.856 171.121 64.856 171.121L63.4111 171.828C63.4111 171.828 65.8795 157.347 62.1267 153.102C58.374 148.858 50.3266 149.683 43.6238 166.15C41.4966 171.278 39.3895 165.835 39.3895 165.835Z" fill="#0D2E99"/>
<path d="M65.3554 127.438C63.1278 127.438 61.121 128.479 61.9839 129.402C62.8468 130.326 67.7435 132.016 71.6568 133.548C76.5441 135.949 81.1758 138.819 85.4838 142.116C85.9842 142.619 86.5884 143.013 87.2562 143.271C87.924 143.528 88.6401 143.643 89.357 143.609C90.8821 143.609 95.3774 143.118 94.3539 141.369C92.747 139.082 90.8823 136.979 88.7951 135.101C87.0893 133.49 71.6769 127.693 69.5898 127.752C68.172 127.759 66.7559 127.654 65.3554 127.438Z" fill="#FF960B"/>
<path d="M62.2462 128.258C62.2466 128.446 62.3181 128.628 62.4469 128.769C63.3099 129.712 68.2065 131.382 72.1399 132.934C77.027 135.316 81.6533 138.18 85.9468 141.482C86.4545 141.983 87.0623 142.376 87.7322 142.636C88.4021 142.896 89.1197 143.019 89.84 142.995C91.4829 143.019 93.1076 142.655 94.5762 141.934C94.4357 143.231 90.7833 143.584 89.4186 143.604C88.7022 143.635 87.9872 143.518 87.3199 143.26C86.6527 143.003 86.0482 142.611 85.5455 142.111C81.245 138.813 76.6199 135.943 71.7385 133.544C67.7249 132.011 62.9085 130.341 62.0455 129.397C61.7044 129.024 61.8248 128.612 62.2462 128.258Z" fill="#F7530B"/>
<path d="M63.9126 128.687C64.9854 126.736 66.2133 124.87 67.5851 123.107C70.7759 119.806 75.9535 119.177 81.1311 120.769C88.0948 122.871 92.1887 129.552 90.2621 135.682C90.1216 136.154 89.4394 138.001 89.2387 138.433C87.0665 138.867 84.808 138.562 82.8369 137.569C80.0172 135.71 77.1036 133.992 74.1072 132.421C70.8568 130.819 67.4386 129.567 63.9126 128.687Z" fill="#F7530B"/>
<path d="M76.6933 121.321C75.0547 120.821 73.3521 120.55 71.636 120.516C74.7146 119.584 78.0149 119.625 81.0681 120.634C88.0519 122.736 92.1458 129.417 90.2192 135.528C90.0788 136 89.3964 137.866 89.1957 138.279C87.9218 138.623 86.5765 138.623 85.3025 138.279C85.5835 137.552 85.9447 136.55 86.0451 136.314C88.0118 130.105 83.657 123.424 76.6933 121.321Z" fill="#FF960B"/>
<path d="M117.674 135.313L108.623 196.344L105.011 196.383L114.342 133.033L117.674 135.313Z" fill="#FFB000"/>
<path d="M119.942 131.638C119.942 131.638 120.063 131.638 120.043 131.736L118.939 132.758C118.939 132.758 118.939 132.758 118.798 132.758L117.374 132.62H117.213L118.016 131.54C118.016 131.54 118.016 131.442 118.196 131.54L119.942 131.638Z" fill="black"/>
<path d="M117.494 137.084L116.912 136.71L114.323 133.036L118.015 131.484L118.096 131.444L117.494 137.084Z" fill="#333333"/>
<path d="M107.159 194.619C106.263 193.775 105.104 193.249 103.867 193.126C103.044 192.947 102.191 192.94 101.364 193.105C100.537 193.27 99.7546 193.603 99.0677 194.083C98.3809 194.562 97.8047 195.178 97.3766 195.89C96.9484 196.602 96.6779 197.394 96.5826 198.215C96.3848 199.89 96.8738 201.574 97.9423 202.896C99.0108 204.219 100.572 205.072 102.282 205.269L104.63 205.544C105.09 205.614 105.56 205.593 106.012 205.483C106.464 205.373 106.889 205.176 107.263 204.903C107.636 204.631 107.951 204.288 108.188 203.896C108.425 203.503 108.58 203.068 108.644 202.617L109.627 195.091C109.262 194.597 108.728 194.248 108.122 194.108C107.828 194.082 107.533 194.082 107.239 194.108L107.159 194.619Z" fill="black"/>
<path d="M107.158 198.523C107.188 198.797 107.188 199.074 107.158 199.348C107.067 200.05 106.807 200.721 106.398 201.306C105.99 201.89 105.446 202.371 104.81 202.708C104.865 202.781 104.913 202.86 104.95 202.944C104.963 202.988 104.957 203.035 104.935 203.076C104.913 203.116 104.875 203.146 104.83 203.16L104.248 203.396C104.226 203.405 104.202 203.41 104.177 203.411C104.153 203.411 104.129 203.406 104.106 203.397C104.084 203.388 104.063 203.374 104.046 203.357C104.029 203.34 104.016 203.32 104.007 203.298L103.867 203.081C103.637 203.141 103.402 203.18 103.164 203.199V203.474C103.159 203.523 103.136 203.568 103.099 203.601C103.062 203.633 103.014 203.651 102.964 203.651H102.322C102.275 203.647 102.232 203.627 102.199 203.595C102.166 203.562 102.145 203.52 102.141 203.474V203.199L101.419 203.062L101.278 203.278C101.245 203.307 101.202 203.323 101.158 203.323C101.113 203.323 101.07 203.307 101.037 203.278L100.455 203.022C100.409 203.005 100.371 202.971 100.349 202.927C100.326 202.884 100.321 202.834 100.335 202.787V202.531L99.7127 202.099L99.4919 202.256C99.4751 202.273 99.4548 202.287 99.4324 202.296C99.41 202.306 99.3858 202.311 99.3615 202.311C99.3371 202.311 99.313 202.306 99.2905 202.296C99.2681 202.287 99.2479 202.273 99.231 202.256L98.8096 201.804C98.792 201.788 98.778 201.768 98.7684 201.746C98.7589 201.724 98.7539 201.7 98.7539 201.676C98.7539 201.653 98.7589 201.629 98.7684 201.607C98.778 201.585 98.792 201.565 98.8096 201.549L98.9902 201.333C98.8471 201.146 98.7196 200.949 98.6089 200.743H98.3681C98.335 200.772 98.2921 200.788 98.2477 200.788C98.2033 200.788 98.1604 200.772 98.1273 200.743L97.8865 200.154C97.8604 200.12 97.8463 200.078 97.8463 200.036C97.8463 199.993 97.8604 199.952 97.8865 199.918L98.1474 199.78C98.1474 199.564 98.1474 199.348 98.1474 199.112H97.8664C97.8183 199.104 97.7745 199.08 97.7418 199.044C97.7091 199.009 97.6894 198.963 97.6858 198.916V198.307C97.683 198.283 97.685 198.26 97.6915 198.237C97.6981 198.215 97.7092 198.194 97.7241 198.175C97.7391 198.157 97.7575 198.142 97.7785 198.131C97.7995 198.12 97.8225 198.112 97.8463 198.11H98.1875C98.2292 197.898 98.2828 197.688 98.348 197.481L98.0671 197.304C98.0375 197.272 98.0211 197.23 98.0211 197.187C98.0211 197.143 98.0375 197.101 98.0671 197.069L98.3079 196.499C98.326 196.453 98.3607 196.416 98.4052 196.394C98.4497 196.373 98.5008 196.368 98.5487 196.381H98.91L99.1909 195.968L98.1072 194.946C98.81 194.176 99.6896 193.581 100.673 193.208C101.657 192.836 102.717 192.698 103.766 192.805C105.084 192.868 106.326 193.424 107.238 194.357V194.573C107.238 194.573 106.536 194.888 106.395 195.359C106.255 195.831 106.215 196.067 106.817 196.754C107.069 197.31 107.186 197.915 107.158 198.523Z" fill="#FFD400"/>
<path d="M102.944 195.835C103.555 195.91 104.129 196.16 104.595 196.555C105.06 196.95 105.395 197.471 105.558 198.052C105.72 198.634 105.703 199.249 105.508 199.821C105.313 200.393 104.949 200.895 104.462 201.264C103.975 201.634 103.388 201.853 102.774 201.895C102.159 201.937 101.546 201.799 101.012 201.5C100.478 201.2 100.046 200.752 99.7721 200.213C99.498 199.673 99.3937 199.065 99.4723 198.468C99.5219 198.071 99.6512 197.687 99.8529 197.34C100.055 196.992 100.325 196.687 100.648 196.442C100.97 196.197 101.339 196.018 101.734 195.913C102.128 195.809 102.539 195.782 102.944 195.835Z" fill="#EA8500"/>
<path d="M102.944 195.836C103.764 195.938 104.509 196.354 105.015 196.993C105.521 197.633 105.747 198.443 105.643 199.245C105.539 200.048 105.114 200.777 104.461 201.273C103.808 201.768 102.981 201.99 102.161 201.888L102.944 195.836Z" fill="black"/>
<path d="M97.5863 179.582C100.243 178.266 103.094 177.364 106.035 176.91C106.938 177.185 106.677 177.755 105.915 178.875C105.152 179.995 104.971 179.74 104.971 179.74C107.14 179.662 109.311 179.847 111.433 180.29C113.44 180.683 114.584 182.451 111.433 182.255C112.979 182.785 114.082 184.22 111.594 184.573C112.918 185.163 113.179 186.44 111.092 186.696C111.895 186.931 112.136 187.796 111.092 188.425C108.889 189.584 106.345 189.966 103.888 189.505C98.8505 188.798 98.5294 186.872 94.9974 186.283L97.5863 179.582Z" fill="#0D2E99"/>
<path d="M51.6909 156.596C51.9364 158.958 52.7255 161.236 53.9988 163.257C57.3301 168.051 65.6384 174.398 71.5384 178.446C77.4385 182.494 95.8812 188.919 95.8812 188.919L100.979 176.638C100.979 176.638 82.4154 170.134 77.7194 166.028C73.0234 161.921 66.3006 153.236 63.3907 150.897C56.3668 145.219 51.6307 152.902 51.6909 156.596Z" fill="#FF960B"/>
<path d="M116.51 156.361C116.916 155.952 117.21 155.45 117.365 154.9C117.519 154.35 117.529 153.771 117.393 153.217C117.006 152.834 116.517 152.564 115.983 152.436C115.448 152.307 114.888 152.326 114.363 152.49C113.256 152.93 112.287 153.649 111.554 154.573C111.293 155.162 111.373 155.83 112.136 155.791C112.898 155.752 115.126 155.791 115.126 155.791L116.51 156.361Z" fill="#0D2E99"/>
<path d="M116.873 153.395C116.692 154.672 117.736 152.137 117.214 151.43C116.948 151.067 116.607 150.764 116.212 150.54C115.818 150.316 115.379 150.178 114.926 150.133C113.905 150.501 112.95 151.025 112.096 151.685C111.514 152.196 111.554 153.355 112.096 153.257C112.638 153.159 115.026 152.825 115.026 152.825C115.026 152.825 116.893 153.218 116.873 153.395Z" fill="#0D2E99"/>
<path d="M116.511 150.879C116.875 150.583 117.154 150.198 117.319 149.764C117.485 149.329 117.531 148.86 117.454 148.403C117.398 148.205 117.297 148.022 117.159 147.868C117.02 147.714 116.848 147.592 116.655 147.513C116.462 147.434 116.253 147.398 116.043 147.409C115.834 147.42 115.63 147.478 115.447 147.578C114.36 148.271 113.409 149.15 112.637 150.171C112.397 150.8 112.958 151.154 113.581 151.134C114.203 151.114 116.511 150.879 116.511 150.879Z" fill="#0D2E99"/>
</svg>
