<svg width="759" height="258" viewBox="0 0 759 258" fill="none" xmlns="http://www.w3.org/2000/svg">
<path d="M749.493 100.524V533.06C749.493 538.35 747.391 543.423 743.651 547.163C739.911 550.903 734.838 553.005 729.548 553.005C724.259 553.005 719.186 550.903 715.446 547.163C711.706 543.423 709.604 538.35 709.604 533.06V100.524C709.604 89.5679 693.915 77.362 671.404 77.362H-3.81299C-33.7958 77.362 -59.1116 93.7695 -59.1116 113.195V537.634C-59.1116 546.17 -45.7091 555.717 -27.7593 555.717H438.124C443.413 555.717 448.486 557.818 452.227 561.558C455.967 565.299 458.068 570.372 458.068 575.661C458.068 580.951 455.967 586.024 452.227 589.764C448.486 593.504 443.413 595.605 438.124 595.605H-27.7593C-67.6477 595.605 -99 570.143 -99 537.634V113.195C-99 92.134 -88.0307 71.9771 -68.8976 57.7369C-51.2669 44.6668 -28.1582 37.4736 -3.74651 37.4736H671.404C691.189 37.4736 709.963 43.3505 724.403 54.0273C740.345 65.8476 749.493 82.8002 749.493 100.524Z" fill="#42D6FF"/>
<path d="M749.493 100.524V533.06C749.493 538.35 747.391 543.423 743.651 547.163C739.911 550.903 734.838 553.005 729.548 553.005C724.259 553.005 719.186 550.903 715.446 547.163C711.706 543.423 709.604 538.35 709.604 533.06V100.524C709.604 89.5679 693.915 77.362 671.404 77.362H-3.81299C-33.7958 77.362 -59.1116 93.7695 -59.1116 113.195V537.634C-59.1116 546.17 -45.7091 555.717 -27.7593 555.717H438.124C443.413 555.717 448.486 557.818 452.227 561.558C455.967 565.299 458.068 570.372 458.068 575.661C458.068 580.951 455.967 586.024 452.227 589.764C448.486 593.504 443.413 595.605 438.124 595.605H-27.7593C-67.6477 595.605 -99 570.143 -99 537.634V113.195C-99 92.134 -88.0307 71.9771 -68.8976 57.7369C-51.2669 44.6668 -28.1582 37.4736 -3.74651 37.4736H671.404C691.189 37.4736 709.963 43.3505 724.403 54.0273C740.345 65.8476 749.493 82.8002 749.493 100.524Z" fill="#42D6FF"/>
<path d="M724.403 54.0273C710.003 43.3904 691.163 37.4736 671.404 37.4736H-3.81299C-28.1582 37.4736 -51.2669 44.6668 -68.8976 57.7635C-88.0307 71.9239 -99 92.134 -99 113.195V537.634C-99 570.143 -67.7142 595.605 -27.7593 595.605H438.124C443.413 595.605 448.486 593.504 452.227 589.764C455.967 586.024 458.068 580.951 458.068 575.661C458.068 570.372 455.967 565.299 452.227 561.558C448.486 557.818 443.413 555.717 438.124 555.717H220.905V431.89H180.897V555.717H-27.7593C-45.7091 555.717 -59.1116 546.17 -59.1116 537.634V113.195C-59.1116 93.7695 -33.8489 77.362 -3.81299 77.362H671.404C693.915 77.362 709.604 89.5679 709.604 100.524V533.06C709.604 538.35 711.706 543.423 715.446 547.163C719.186 550.903 724.259 553.005 729.548 553.005C734.838 553.005 739.911 550.903 743.651 547.163C747.391 543.423 749.493 538.35 749.493 533.06V100.524C749.493 82.8002 740.345 65.8476 724.403 54.0273Z" fill="#42D6FF"/>
<path d="M-27.7593 592.268C-65.8394 592.268 -95.676 568.335 -95.676 537.634V113.195C-95.676 93.2511 -85.1986 73.9584 -66.9164 60.4096C-49.8575 47.765 -27.4668 40.7979 -3.81298 40.7979H671.404C690.471 40.7979 708.634 46.4487 722.422 56.7532C737.513 67.9486 746.169 83.9172 746.169 100.63V533.061C746.169 537.468 744.418 541.696 741.301 544.813C738.184 547.93 733.956 549.681 729.548 549.681C725.141 549.681 720.913 547.93 717.796 544.813C714.679 541.696 712.928 537.468 712.928 533.061V100.524C712.928 87.7332 696.242 74.0382 671.404 74.0382H-3.81298C-35.5907 74.0382 -62.4356 91.9747 -62.4356 113.195V537.634C-62.4356 549.042 -46.2277 559.041 -27.7593 559.041H184.221V435.214H217.581V559.028H438.124C442.532 559.028 446.759 560.779 449.876 563.896C452.993 567.013 454.744 571.24 454.744 575.648C454.744 580.056 452.993 584.283 449.876 587.4C446.759 590.517 442.532 592.268 438.124 592.268H-27.7593Z" fill="#3E3E96"/>
<path d="M724.403 54.0273C710.003 43.3904 691.163 37.4736 671.404 37.4736H-3.81299C-28.1582 37.4736 -51.2669 44.6668 -68.8976 57.7635C-88.0307 71.9239 -99 92.134 -99 113.195V537.634C-99 570.143 -67.7142 595.605 -27.7593 595.605H438.124C443.413 595.605 448.486 593.504 452.227 589.764C455.967 586.024 458.068 580.951 458.068 575.661C458.068 570.372 455.967 565.299 452.227 561.558C448.486 557.818 443.413 555.717 438.124 555.717H220.905V431.877H180.897V555.717H-27.7593C-45.7091 555.717 -59.1116 546.17 -59.1116 537.634V113.195C-59.1116 93.7695 -33.8489 77.362 -3.81299 77.362H671.404C693.915 77.362 709.604 89.5679 709.604 100.524V533.06C709.604 538.35 711.706 543.423 715.446 547.163C719.186 550.903 724.259 553.005 729.548 553.005C734.838 553.005 739.911 550.903 743.651 547.163C747.391 543.423 749.493 538.35 749.493 533.06V100.524C749.493 82.8002 740.345 65.8476 724.403 54.0273ZM742.845 533.06C742.845 536.587 741.444 539.969 738.95 542.462C736.457 544.956 733.075 546.356 729.548 546.356C726.022 546.356 722.64 544.956 720.147 542.462C717.653 539.969 716.252 536.587 716.252 533.06V100.524C716.252 86.1242 698.236 70.714 671.404 70.714H-3.81299C-19.5822 70.714 -34.6733 74.8757 -46.3606 82.4146C-58.6728 90.4188 -65.7597 101.641 -65.7597 113.195V537.634C-65.7597 551.037 -48.355 562.365 -27.7593 562.365H187.545V438.525H214.257V562.365H438.124C441.65 562.365 445.032 563.766 447.526 566.259C450.019 568.753 451.42 572.135 451.42 575.661C451.42 579.188 450.019 582.569 447.526 585.063C445.032 587.556 441.65 588.957 438.124 588.957H-27.7593C-32.7753 588.967 -37.7818 588.522 -42.7175 587.628C-45.2673 587.165 -47.7924 586.575 -50.283 585.859C-75.0803 578.746 -92.3519 560.078 -92.3519 537.634V113.195C-92.3519 94.2614 -82.3532 75.9659 -64.9353 63.082C-48.4481 50.8495 -26.7355 44.1217 -3.7731 44.1217H671.404C689.766 44.1217 707.184 49.5332 720.441 59.3724C734.681 69.9295 742.845 84.9275 742.845 100.524V533.06Z" fill="#21215B"/>
<path d="M693.112 71.7995H-42.1642C-32.7825 68.1496 -20.5473 65.3586 -6.13608 64.8958C8.44769 64.4501 22.9913 65.8763 34.4892 68.8796C59.4927 63.245 95.0164 61.8614 120.957 67.0332C142.804 62.0045 173.313 61.704 194.987 66.8185C220.279 60.7688 256.307 61.2841 282.319 66.9903C308.577 61.9187 342.847 63.3118 368.787 68.5743C378.875 65.3729 394.54 64.2803 408.533 64.2803C422.526 64.2803 436.217 65.5017 449.735 66.6945C469.911 61.828 497.551 62.4769 518.693 66.8567C541.851 62.4005 573.196 62.119 595.836 66.8567C615.133 63.2211 638.104 63.183 656.666 67.2193C668.642 63.8795 684.105 67.558 693.112 71.7995Z" fill="#80C8D0"/>
<path d="M693.112 71.7994H-42.1642C-32.7825 69.1924 -20.5473 67.1988 -6.13608 66.8682C8.44769 66.5499 22.9913 67.5686 34.4892 69.7138C59.4927 65.6891 95.0164 64.7008 120.957 68.395C142.804 64.803 173.313 64.5883 194.987 68.2416C220.279 63.9204 256.307 64.2884 282.319 68.3643C308.577 64.7417 342.847 65.7368 368.787 69.4957C378.875 67.209 394.54 66.4286 408.533 66.4286C422.526 66.4286 436.217 67.301 449.735 68.153C469.911 64.6769 497.551 65.1404 518.693 68.2689C541.851 65.0859 573.196 64.8848 595.836 68.2689C615.133 65.6721 638.104 65.6448 656.666 68.5279C668.642 66.1423 684.105 68.7698 693.112 71.7994Z" fill="#0091A1"/>
<path d="M759 153.015H700.736V168.704H759V153.015Z" fill="#21215B"/>
<path d="M647.644 28.1504H631.968V86.414H647.644V28.1504Z" fill="#21215B"/>
<path d="M749.493 100.524V162.151L746.169 161.979L742.845 161.819L726.065 161.008L716.252 160.529L712.928 160.356L709.604 160.197V100.524C709.604 89.5679 693.915 77.362 671.404 77.362H636.834V74.038V70.714L637.087 56.9924L637.326 44.1217V40.7977V37.4736H671.218C691.003 37.4736 709.777 43.3505 724.217 54.0273C740.345 65.8476 749.493 82.8002 749.493 100.524Z" fill="#0F0F29"/>
<g style="mix-blend-mode:screen">
<path d="M758.999 153.014V168.704H726.118V161.005V153.028L725.666 87.3182C722.355 59.5957 674.316 56.3382 647.75 56.7371C643.668 56.7371 640.092 56.9232 637.26 57.0695C635.026 57.1891 633.271 57.3088 632.074 57.3886V28.1504H647.75V37.4577H671.511C691.295 37.4577 710.069 43.3346 724.509 54.0114C740.464 65.8316 749.599 82.7842 749.599 100.548V153.041L758.999 153.014Z" fill="#2E2E75"/>
</g>
<path d="M320.514 33.2274L320.514 78.3545L455.895 78.3545L455.895 33.2274L320.514 33.2274Z" fill="#0F0F29"/>
<path d="M314.172 28.1621L314.172 86.4258L329.862 86.4258L329.862 28.1621L314.172 28.1621Z" fill="#21215B"/>
<path d="M446.536 27.1495L446.536 85.4131L462.226 85.4131L462.226 27.1495L446.536 27.1495Z" fill="#21215B"/>
<g style="mix-blend-mode:screen">
<path d="M446.535 27.151L462.225 27.151L462.225 56.4424L314.172 56.4424L314.172 28.1615L329.862 28.1615L329.862 33.2273L446.535 33.2273L446.535 27.151Z" fill="#21215B"/>
</g>
<path d="M432.995 67.8961C439.546 43.4995 425.079 18.4116 400.683 11.8609C376.286 5.31014 351.198 19.7771 344.647 44.1737C338.097 68.5703 352.564 93.6581 376.96 100.209C401.357 106.76 426.445 92.2927 432.995 67.8961Z" stroke="#F5804E" stroke-width="4" stroke-miterlimit="10"/>
<path d="M404.893 60.4355C406.985 51.1162 401.126 41.8654 391.806 39.7733C382.487 37.6812 373.236 43.54 371.144 52.8593C369.052 62.1787 374.911 71.4294 384.23 73.5215C393.55 75.6136 402.8 69.7548 404.893 60.4355Z" fill="#F5804E"/>
<path d="M355.39 89.3854L421.591 23.1973" stroke="#F5804E" stroke-width="4" stroke-miterlimit="10"/>
<path d="M351.401 29.8447L425.633 83.4015" stroke="#F5804E" stroke-width="4" stroke-miterlimit="10"/>
<path d="M396.368 56.9828C396.368 58.6684 395.868 60.3162 394.932 61.7178C393.996 63.1194 392.664 64.2118 391.107 64.8569C389.55 65.5019 387.836 65.6707 386.183 65.3418C384.53 65.013 383.011 64.2013 381.819 63.0093C380.627 61.8174 379.815 60.2988 379.487 58.6455C379.158 56.9922 379.326 55.2786 379.971 53.7212C380.617 52.1639 381.709 50.8328 383.111 49.8963C384.512 48.9598 386.16 48.46 387.846 48.46C390.106 48.46 392.274 49.3579 393.872 50.9563C395.47 52.5546 396.368 54.7224 396.368 56.9828Z" fill="white"/>
<path d="M167.408 77.5443H76.2833C72.8135 77.5443 70 74.7308 70 71.261V43.4005C70 39.9307 72.8135 37.1172 76.2833 37.1172H167.408C170.878 37.1172 173.692 39.9307 173.692 43.4005V71.261C173.692 74.7308 170.878 77.5443 167.408 77.5443Z" fill="#9B915C"/>
<path d="M121.846 100.657C145.776 100.657 165.174 81.258 165.174 57.3284C165.174 33.3988 145.776 14 121.846 14C97.9164 14 78.5176 33.3988 78.5176 57.3284C78.5176 81.258 97.9164 100.657 121.846 100.657Z" fill="#9B915C"/>
<path d="M158.411 63.0892C161.679 42.7947 147.877 23.6932 127.582 20.4249C107.288 17.1565 88.1862 30.959 84.9178 51.2535C81.6495 71.548 95.452 90.6495 115.746 93.9178C136.041 97.1862 155.142 83.3837 158.411 63.0892Z" fill="#EDEDED"/>
<path d="M159 57.5698C159 78.2434 142.243 94.995 121.57 94.995C100.902 94.995 84.1445 78.2379 84.1445 57.5698C84.1445 36.9016 100.902 20.1445 121.57 20.1445C142.243 20.1445 159 36.9016 159 57.5698Z" fill="white"/>
<path d="M121.573 92.0443C120.875 92.0443 120.307 91.477 120.307 90.7788V24.3778C120.307 23.6796 120.875 23.1123 121.573 23.1123C122.271 23.1123 122.839 23.6796 122.839 24.3778V90.7788C122.839 91.477 122.271 92.0443 121.573 92.0443Z" fill="#3C3C3B"/>
<path d="M154.756 58.8337H88.3553C87.6571 58.8337 87.0898 58.2664 87.0898 57.5682C87.0898 56.87 87.6571 56.3027 88.3553 56.3027H154.756C155.455 56.3027 156.022 56.87 156.022 57.5682C156.022 58.2664 155.455 58.8337 154.756 58.8337Z" fill="#3C3C3B"/>
<path d="M145.021 82.3019C144.699 82.3019 144.372 82.1765 144.126 81.931L97.1771 34.9817C96.6807 34.4853 96.6807 33.6835 97.1771 33.1926C97.6735 32.6962 98.4754 32.6962 98.9663 33.1926L145.916 80.1418C146.412 80.6382 146.412 81.4401 145.916 81.931C145.665 82.1765 145.343 82.3019 145.021 82.3019Z" fill="#3C3C3B"/>
<path d="M98.0717 82.3019C97.7499 82.3019 97.4226 82.1765 97.1771 81.931C96.6807 81.4346 96.6807 80.6328 97.1771 80.1418L144.126 33.1926C144.623 32.6962 145.425 32.6962 145.916 33.1926C146.406 33.689 146.412 34.4908 145.916 34.9817L98.9663 81.931C98.7208 82.1765 98.399 82.3019 98.0717 82.3019Z" fill="#3C3C3B"/>
<path d="M149.035 57.5816C149.035 72.7567 136.734 85.0518 121.565 85.0518C106.395 85.0518 94.0944 72.7513 94.0944 57.5816C94.0944 42.4118 106.395 30.1113 121.565 30.1113C136.734 30.1113 149.035 42.4118 149.035 57.5816Z" fill="white"/>
<path d="M124.141 62.3212C121.479 63.7804 118.136 62.8018 116.677 60.1394C115.218 57.477 116.196 54.1341 118.859 52.6749C121.521 51.2157 124.864 52.1943 126.323 54.8567C127.783 57.5226 126.804 60.862 124.141 62.3212Z" fill="#F5804E"/>
<path d="M150.571 41.7168L122.726 53.3372L125.084 58.3012L150.571 41.7168Z" fill="#F5804E"/>
<path d="M137.552 70.4463H106.145V78.52H137.552V70.4463Z" fill="white"/>
<path d="M137.999 78.9706H105.693V70H137.999V78.9706ZM106.591 78.0727H137.102V70.8959H106.591V78.0727Z" fill="#575756"/>
<path d="M110.768 71.5693H107.377V77.4019H110.768V71.5693Z" fill="#DADADA"/>
<path d="M115.036 71.5693H111.645V77.4019H115.036V71.5693Z" fill="#DADADA"/>
<path d="M119.304 71.5693H115.914V77.4019H119.304V71.5693Z" fill="#DADADA"/>
<path d="M123.571 71.5693H120.181V77.4019H123.571V71.5693Z" fill="#DADADA"/>
<path d="M127.84 71.5693H124.449V77.4019H127.84V71.5693Z" fill="#DADADA"/>
<path d="M132.108 71.5693H128.717V77.4019H132.108V71.5693Z" fill="#DADADA"/>
<path d="M136.373 71.5693H132.982V77.4019H136.373V71.5693Z" fill="#DADADA"/>
<path d="M606.493 221.523V654.059C606.493 659.349 604.391 664.422 600.651 668.162C596.911 671.902 591.838 674.004 586.548 674.004C581.259 674.004 576.186 671.902 572.446 668.162C568.706 664.422 566.604 659.349 566.604 654.059V221.523C566.604 210.567 550.915 198.361 528.404 198.361H-146.813C-176.796 198.361 -202.112 214.768 -202.112 234.194V658.633C-202.112 667.169 -188.709 676.716 -170.759 676.716H295.124C300.413 676.716 305.486 678.817 309.227 682.557C312.967 686.298 315.068 691.371 315.068 696.66C315.068 701.95 312.967 707.023 309.227 710.763C305.486 714.503 300.413 716.604 295.124 716.604H-170.759C-210.648 716.604 -242 691.142 -242 658.633V234.194C-242 213.133 -231.031 192.976 -211.898 178.736C-194.267 165.666 -171.158 158.473 -146.747 158.473H528.404C548.189 158.473 566.963 164.35 581.403 175.026C597.345 186.847 606.493 203.799 606.493 221.523Z" fill="#42D6FF"/>
<path d="M606.493 221.523V654.059C606.493 659.349 604.391 664.422 600.651 668.162C596.911 671.902 591.838 674.004 586.548 674.004C581.259 674.004 576.186 671.902 572.446 668.162C568.706 664.422 566.604 659.349 566.604 654.059V221.523C566.604 210.567 550.915 198.361 528.404 198.361H-146.813C-176.796 198.361 -202.112 214.768 -202.112 234.194V658.633C-202.112 667.169 -188.709 676.716 -170.759 676.716H295.124C300.413 676.716 305.486 678.817 309.227 682.557C312.967 686.298 315.068 691.371 315.068 696.66C315.068 701.95 312.967 707.023 309.227 710.763C305.486 714.503 300.413 716.604 295.124 716.604H-170.759C-210.648 716.604 -242 691.142 -242 658.633V234.194C-242 213.133 -231.031 192.976 -211.898 178.736C-194.267 165.666 -171.158 158.473 -146.747 158.473H528.404C548.189 158.473 566.963 164.35 581.403 175.026C597.345 186.847 606.493 203.799 606.493 221.523Z" fill="#42D6FF"/>
<path d="M581.403 175.026C567.003 164.389 548.163 158.473 528.404 158.473H-146.813C-171.158 158.473 -194.267 165.666 -211.898 178.763C-231.031 192.923 -242 213.133 -242 234.194V658.633C-242 691.142 -210.714 716.604 -170.759 716.604H295.124C300.413 716.604 305.486 714.503 309.227 710.763C312.967 707.023 315.068 701.95 315.068 696.66C315.068 691.371 312.967 686.298 309.227 682.557C305.486 678.817 300.413 676.716 295.124 676.716H77.9049V552.889H37.8969V676.716H-170.759C-188.709 676.716 -202.112 667.169 -202.112 658.633V234.194C-202.112 214.768 -176.849 198.361 -146.813 198.361H528.404C550.915 198.361 566.604 210.567 566.604 221.523V654.059C566.604 659.349 568.706 664.422 572.446 668.162C576.186 671.902 581.259 674.004 586.548 674.004C591.838 674.004 596.911 671.902 600.651 668.162C604.391 664.422 606.493 659.349 606.493 654.059V221.523C606.493 203.799 597.345 186.847 581.403 175.026Z" fill="#42D6FF"/>
<path d="M-170.759 713.267C-208.839 713.267 -238.676 689.334 -238.676 658.633V234.194C-238.676 214.25 -228.198 194.957 -209.916 181.409C-192.857 168.764 -170.467 161.797 -146.813 161.797H528.405C547.471 161.797 565.634 167.448 579.422 177.752C594.513 188.948 603.169 204.916 603.169 221.629V654.06C603.169 658.467 601.418 662.695 598.301 665.812C595.184 668.929 590.957 670.68 586.549 670.68C582.141 670.68 577.913 668.929 574.796 665.812C571.68 662.695 569.928 658.467 569.928 654.06V221.523C569.928 208.732 553.242 195.037 528.405 195.037H-146.813C-178.591 195.037 -205.435 212.974 -205.435 234.194V658.633C-205.435 670.042 -189.227 680.04 -170.759 680.04H41.2211V556.213H74.5811V680.027H295.124C299.532 680.027 303.759 681.778 306.876 684.895C309.993 688.012 311.744 692.239 311.744 696.647C311.744 701.055 309.993 705.282 306.876 708.399C303.759 711.516 299.532 713.267 295.124 713.267H-170.759Z" fill="#3E3E96"/>
<path d="M581.403 175.026C567.003 164.389 548.163 158.473 528.404 158.473H-146.813C-171.158 158.473 -194.267 165.666 -211.898 178.763C-231.031 192.923 -242 213.133 -242 234.194V658.633C-242 691.142 -210.714 716.604 -170.759 716.604H295.124C300.413 716.604 305.486 714.503 309.227 710.763C312.967 707.023 315.068 701.95 315.068 696.66C315.068 691.371 312.967 686.298 309.227 682.557C305.486 678.817 300.413 676.716 295.124 676.716H77.9049V552.876H37.8969V676.716H-170.759C-188.709 676.716 -202.112 667.169 -202.112 658.633V234.194C-202.112 214.768 -176.849 198.361 -146.813 198.361H528.404C550.915 198.361 566.604 210.567 566.604 221.523V654.059C566.604 659.349 568.706 664.422 572.446 668.162C576.186 671.902 581.259 674.004 586.548 674.004C591.838 674.004 596.911 671.902 600.651 668.162C604.391 664.422 606.493 659.349 606.493 654.059V221.523C606.493 203.799 597.345 186.847 581.403 175.026ZM599.845 654.059C599.845 657.586 598.444 660.968 595.95 663.461C593.457 665.955 590.075 667.355 586.548 667.355C583.022 667.355 579.64 665.955 577.147 663.461C574.653 660.968 573.252 657.586 573.252 654.059V221.523C573.252 207.123 555.236 191.713 528.404 191.713H-146.813C-162.582 191.713 -177.673 195.875 -189.361 203.414C-201.673 211.418 -208.76 222.64 -208.76 234.194V658.633C-208.76 672.036 -191.355 683.364 -170.759 683.364H44.545V559.524H71.2569V683.364H295.124C298.65 683.364 302.032 684.765 304.526 687.258C307.019 689.752 308.42 693.134 308.42 696.66C308.42 700.187 307.019 703.568 304.526 706.062C302.032 708.555 298.65 709.956 295.124 709.956H-170.759C-175.775 709.966 -180.782 709.521 -185.717 708.627C-188.267 708.164 -190.792 707.574 -193.283 706.858C-218.08 699.745 -235.352 681.077 -235.352 658.633V234.194C-235.352 215.26 -225.353 196.965 -207.935 184.081C-191.448 171.849 -169.736 165.121 -146.773 165.121H528.404C546.766 165.121 564.184 170.532 577.441 180.371C591.681 190.929 599.845 205.927 599.845 221.523V654.059Z" fill="#21215B"/>
<path d="M550.112 192.799H-185.164C-175.782 189.15 -163.547 186.359 -149.136 185.896C-134.552 185.45 -120.009 186.876 -108.511 189.88C-83.5072 184.245 -47.9834 182.861 -22.0432 188.033C-0.19577 183.005 30.3128 182.704 51.9874 187.819C77.2791 181.769 113.307 182.284 139.319 187.99C165.577 182.919 199.847 184.312 225.787 189.574C235.875 186.373 251.54 185.28 265.533 185.28C279.526 185.28 293.217 186.502 306.735 187.694C326.911 182.828 354.551 183.477 375.693 187.857C398.852 183.401 430.196 183.119 452.836 187.857C472.133 184.221 495.104 184.183 513.666 188.219C525.642 184.88 541.105 188.558 550.112 192.799Z" fill="#80C8D0"/>
<path d="M550.112 192.8H-185.164C-175.782 190.193 -163.547 188.2 -149.136 187.869C-134.552 187.551 -120.009 188.57 -108.511 190.715C-83.5072 186.69 -47.9834 185.702 -22.0432 189.396C-0.19577 185.804 30.3128 185.589 51.9874 189.243C77.2791 184.921 113.307 185.289 139.319 189.365C165.577 185.743 199.847 186.738 225.787 190.497C235.875 188.21 251.54 187.43 265.533 187.43C279.526 187.43 293.217 188.302 306.735 189.154C326.911 185.678 354.551 186.141 375.693 189.27C398.852 186.087 430.196 185.886 452.836 189.27C472.133 186.673 495.104 186.646 513.666 189.529C525.642 187.143 541.105 189.771 550.112 192.8Z" fill="#0091A1"/>
<path d="M504.645 149.152H488.969V207.416H504.645V149.152Z" fill="#21215B"/>
<path d="M606.492 221.523V283.15L603.168 282.978L599.844 282.818L583.064 282.007L573.252 281.528L569.928 281.356L566.604 281.196V221.523C566.604 210.567 550.914 198.361 528.404 198.361H493.834V195.037V191.713L494.087 177.991L494.326 165.121V161.797V158.473H528.218C548.002 158.473 566.777 164.35 581.216 175.026C597.344 186.847 606.492 203.799 606.492 221.523Z" fill="#0F0F29"/>
<g style="mix-blend-mode:screen">
<path d="M615.999 274.016V289.706H583.118V282.007V274.03L582.666 208.32C579.355 180.598 531.316 177.34 504.75 177.739C500.668 177.739 497.092 177.925 494.26 178.071C492.026 178.191 490.271 178.311 489.074 178.391V149.152H504.75V158.46H528.511C548.295 158.46 567.069 164.337 581.509 175.013C597.464 186.834 606.599 203.786 606.599 221.55V274.043L615.999 274.016Z" fill="#2E2E75"/>
</g>
<path d="M620.209 210.896C626.76 186.499 612.293 161.412 587.896 154.861C563.5 148.31 538.412 162.777 531.861 187.174C525.31 211.57 539.777 236.658 564.174 243.209C588.571 249.76 613.658 235.293 620.209 210.896Z" stroke="#F5804E" stroke-width="4" stroke-miterlimit="10"/>
<path d="M592.106 203.435C594.198 194.116 588.34 184.865 579.02 182.773C569.701 180.681 560.45 186.54 558.358 195.859C556.266 205.179 562.125 214.429 571.444 216.521C580.763 218.614 590.014 212.755 592.106 203.435Z" fill="#F5804E"/>
<path d="M542.603 232.385L608.805 166.197" stroke="#F5804E" stroke-width="4" stroke-miterlimit="10"/>
<path d="M538.615 172.845L612.847 226.402" stroke="#F5804E" stroke-width="4" stroke-miterlimit="10"/>
<path d="M583.582 199.983C583.582 201.668 583.082 203.316 582.146 204.718C581.209 206.119 579.878 207.212 578.321 207.857C576.763 208.502 575.05 208.671 573.397 208.342C571.743 208.013 570.225 207.201 569.033 206.009C567.841 204.817 567.029 203.299 566.7 201.646C566.371 199.992 566.54 198.279 567.185 196.721C567.83 195.164 568.923 193.833 570.324 192.896C571.726 191.96 573.374 191.46 575.059 191.46C577.32 191.46 579.487 192.358 581.086 193.956C582.684 195.555 583.582 197.722 583.582 199.983Z" fill="white"/>
</svg>
