<svg width="19" height="21" viewBox="0 0 19 21" fill="none" xmlns="http://www.w3.org/2000/svg">
<path d="M13.6327 17.0143C13.2452 18.9135 11.5618 20.3477 9.55016 20.3477C7.53849 20.3477 5.85433 18.9135 5.46766 17.0143H13.6327ZM16.8335 7.83766C16.7668 7.84016 16.701 7.84766 16.6335 7.84766C14.106 7.84766 12.0502 5.79182 12.0502 3.26432C12.0502 2.51099 12.236 1.80099 12.5602 1.17349C11.5752 0.644323 10.4552 0.347656 9.28016 0.347656C6.02933 0.347656 3.21516 2.60516 2.51016 5.77766L0.551827 12.1085C0.0543266 13.7168 1.25683 15.3468 2.94016 15.3468H15.9868C17.7202 15.3468 18.9277 13.626 18.3377 11.996L16.8327 7.83599L16.8335 7.83766Z" fill="black"/>
</svg>
