<svg width="29" height="32" viewBox="0 0 29 32" fill="none" xmlns="http://www.w3.org/2000/svg">
<path d="M14.5 0C16.6875 0 18.5366 1.4448 19.131 3.4256L19.2051 3.6992L19.218 3.768C20.9937 4.76304 22.5068 6.16176 23.6335 7.8496C24.7601 9.53743 25.4682 11.4664 25.6997 13.4784L25.7448 13.9376L25.7754 14.4V19.0896L25.8093 19.3072C26.0298 20.4861 26.6866 21.5403 27.6504 22.2624L27.9194 22.4496L28.1803 22.608C29.5656 23.3872 29.0824 25.4336 27.5731 25.5904L27.3862 25.6H1.61384C-0.0420405 25.6 -0.620308 23.4176 0.819724 22.608C1.43348 22.263 1.96377 21.7887 2.37338 21.2185C2.78299 20.6483 3.06198 19.9959 3.19078 19.3072L3.22461 19.0784L3.22622 14.3264C3.32443 12.2366 3.93683 10.2026 5.00981 8.40235C6.08278 6.60212 7.58363 5.09057 9.38099 4L9.78046 3.7664L9.79657 3.6976C10.0244 2.74084 10.5423 1.87654 11.2802 1.22134C12.0182 0.566137 12.9407 0.151575 13.9234 0.0335999L14.2165 0.00639992L14.5 0Z" fill="black"/>
<path d="M18.1001 27.2C19.4935 27.2 20.2296 28.8384 19.3002 29.8688C18.6964 30.5399 17.9567 31.0767 17.1294 31.444C16.3022 31.8113 15.4062 32.0008 14.5001 32C13.594 32.0008 12.6979 31.8113 11.8707 31.444C11.0435 31.0767 10.3037 30.5399 9.69995 29.8688C8.81081 28.8832 9.44545 27.3424 10.7212 27.2112L10.8984 27.2016L18.1001 27.2Z" fill="black"/>
</svg>
