<svg width="56" height="74" viewBox="0 0 56 74" fill="none" xmlns="http://www.w3.org/2000/svg">
<path d="M40.6674 1.1189L55.1488 16.2145V73.6196H1.05176V73.807H55.3336V16.4045L40.6674 1.1189Z" fill="#909090"/>
<path d="M40.489 0.936035H0.868164V73.6242H55.15V16.2217L40.489 0.936035Z" fill="white"/>
<path d="M38.5057 21.9551H0.666016V4.43677H38.5057V21.9551Z" fill="#DD2025"/>
<path d="M11.0756 7.53398H7.67383V20.0269H10.3494V15.8132L10.9402 15.847C11.5145 15.8391 12.0835 15.7362 12.6242 15.5425C13.0995 15.3811 13.5363 15.1232 13.9073 14.7851C14.2877 14.4661 14.5866 14.061 14.7792 13.6035C15.0427 12.8453 15.136 12.0385 15.0525 11.2402C15.0376 10.6699 14.9376 10.1049 14.7558 9.56409C14.5919 9.17319 14.3482 8.8208 14.0403 8.52949C13.7324 8.23818 13.3671 8.01435 12.9677 7.87233C12.6234 7.74482 12.2666 7.65409 11.9032 7.60165C11.6287 7.55695 11.3511 7.53432 11.073 7.53398M10.581 13.5046H10.3494V9.65258H10.8517C11.0734 9.63659 11.2959 9.67062 11.5027 9.75216C11.7094 9.8337 11.8952 9.96067 12.0464 10.1237C12.3595 10.5427 12.5268 11.0528 12.5227 11.576C12.5227 12.2162 12.5227 12.7966 11.9449 13.2053C11.5287 13.4345 11.0548 13.5402 10.581 13.5046ZM20.1355 7.50015C19.8466 7.50015 19.5656 7.52097 19.3677 7.52878L18.7483 7.54439H16.7182V20.0373H19.1075C20.0205 20.0608 20.9293 19.9061 21.7831 19.5819C22.4705 19.3104 23.0789 18.871 23.5529 18.3039C24.0173 17.7344 24.349 17.0684 24.5237 16.3545C24.729 15.5475 24.8287 14.7173 24.8204 13.8846C24.8713 12.9011 24.7952 11.9153 24.594 10.9513C24.4013 10.2426 24.0447 9.58907 23.5529 9.04355C23.1672 8.60242 22.6927 8.24766 22.1604 8.00247C21.7045 7.79113 21.2248 7.63558 20.7316 7.53919C20.5354 7.50704 20.3369 7.49224 20.1381 7.49494M19.6645 17.7418H19.4042V9.7671H19.438C19.9746 9.70505 20.5176 9.80189 20.9996 10.0456C21.3527 10.3275 21.6404 10.6827 21.8429 11.0867C22.0614 11.5118 22.1874 11.9784 22.2125 12.4557C22.2359 13.0283 22.2125 13.4968 22.2125 13.8846C22.2221 14.3313 22.1934 14.778 22.1266 15.2197C22.0447 15.6728 21.8965 16.1113 21.6868 16.5211C21.4498 16.9033 21.1261 17.2243 20.742 17.4581C20.4211 17.6663 20.0406 17.7632 19.6593 17.734M32.881 7.54439H26.5564V20.0373H29.232V15.0818H32.6155V12.7602H29.232V9.866H32.8757V7.54439" fill="#464648"/>
<path d="M34.6313 48.4449C34.6313 48.4449 42.9287 46.9405 42.9287 49.7748C42.9287 52.6092 37.7883 51.4562 34.6313 48.4449ZM28.4967 48.6609C27.1782 48.9514 25.8934 49.3779 24.6629 49.9336L25.704 47.5912C26.7451 45.2487 27.8252 42.0552 27.8252 42.0552C29.0644 44.1481 30.51 46.1117 32.1405 47.9165C30.9131 48.0994 29.6966 48.3496 28.4967 48.6661V48.6609ZM25.2121 31.7433C25.2121 29.2734 26.0111 28.5993 26.6332 28.5993C27.2552 28.5993 27.9553 28.8986 27.9788 31.0432C27.7758 33.1997 27.3243 35.3254 26.6332 37.3782C25.6833 35.6559 25.193 33.718 25.2095 31.7512L25.2121 31.7433ZM13.1122 59.1133C10.5667 57.5907 18.4503 52.9033 19.8792 52.7523C19.8714 52.7549 15.7773 60.7062 13.1122 59.1133ZM45.3518 50.1106C45.3257 49.8503 45.0915 46.9691 39.9642 47.0915C37.827 47.054 35.6906 47.2047 33.5798 47.5417C31.5337 45.4823 29.7726 43.1583 28.3431 40.6316C29.2432 38.027 29.7886 35.3132 29.9646 32.5632C29.8891 29.44 29.1422 27.6493 26.7477 27.6753C24.3532 27.7014 24.0044 29.7965 24.3194 32.9146C24.6276 35.0099 25.2095 37.0558 26.0502 38.9997C26.0502 38.9997 24.944 42.443 23.4813 45.8682C22.0186 49.2933 21.0192 51.0892 21.0192 51.0892C18.4752 51.9163 16.0806 53.1466 13.9268 54.733C11.7822 56.7292 10.9103 58.2622 12.0399 59.7952C13.0133 61.1174 16.4202 61.4167 19.4653 57.4268C21.0806 55.3639 22.5586 53.1973 23.8899 50.9408C23.8899 50.9408 28.5331 49.6681 29.9776 49.3194C31.4221 48.9706 33.1685 48.6947 33.1685 48.6947C33.1685 48.6947 37.4083 52.9605 41.4972 52.8096C45.586 52.6586 45.3882 50.3656 45.3622 50.1158" fill="#DD2025"/>
<path d="M40.291 1.13452V16.4202H54.952L40.291 1.13452Z" fill="#909090"/>
<path d="M40.4873 0.936035V16.2217H55.1483L40.4873 0.936035Z" fill="white"/>
<path d="M10.3734 7.32817H6.97168V19.8211H9.65766V15.61L10.2511 15.6438C10.8253 15.6359 11.3944 15.533 11.935 15.3393C12.4103 15.1779 12.8472 14.92 13.2182 14.5819C13.5957 14.262 13.8919 13.857 14.0822 13.4003C14.3458 12.6421 14.4391 11.8353 14.3555 11.037C14.3407 10.4666 14.2407 9.90169 14.0588 9.36088C13.8949 8.96998 13.6513 8.6176 13.3434 8.32628C13.0355 8.03497 12.6701 7.81114 12.2708 7.66913C11.9249 7.54037 11.5663 7.44876 11.2011 7.39584C10.9266 7.35114 10.6489 7.32851 10.3708 7.32817M9.87889 13.2988H9.64725V9.44677H10.1522C10.3739 9.43078 10.5963 9.46482 10.8031 9.54636C11.0099 9.62789 11.1957 9.75486 11.3468 9.91786C11.66 10.3369 11.8273 10.847 11.8231 11.3702C11.8231 12.0104 11.8231 12.5908 11.2453 12.9995C10.8292 13.2287 10.3553 13.3318 9.8815 13.2962M19.4334 7.29434C19.1445 7.29434 18.8634 7.31516 18.6656 7.32297L18.054 7.33858H16.0239V19.8315H18.4131C19.3261 19.855 20.2349 19.7003 21.0887 19.3761C21.7761 19.1046 22.3846 18.6652 22.8585 18.0981C23.323 17.5285 23.6546 16.8626 23.8294 16.1487C24.0346 15.3417 24.1344 14.5114 24.1261 13.6788C24.177 12.6953 24.1009 11.7095 23.8996 10.7455C23.7069 10.0368 23.3503 9.38326 22.8585 8.83774C22.4728 8.39661 21.9983 8.04185 21.4661 7.79666C21.0102 7.58532 20.5304 7.42977 20.0372 7.33338C19.8411 7.30123 19.6425 7.28642 19.4438 7.28913M18.9701 17.536H18.7098V9.56129H18.7437C19.2803 9.49924 19.8232 9.59607 20.3053 9.83978C20.6584 10.1217 20.9461 10.4769 21.1486 10.8809C21.3671 11.306 21.493 11.7726 21.5182 12.2499C21.5416 12.8225 21.5182 13.291 21.5182 13.6788C21.5278 14.1255 21.499 14.5722 21.4323 15.0139C21.3504 15.467 21.2022 15.9055 20.9924 16.3153C20.7554 16.6975 20.4318 17.0185 20.0476 17.2523C19.7268 17.4605 19.3463 17.5574 18.9649 17.5281M32.1788 7.33858H25.8542V19.8315H28.5298V14.876H31.9133V12.5544H28.5298V9.66019H32.1736V7.33858" fill="white"/>
</svg>
