<svg width="18" height="18" viewBox="0 0 18 18" fill="none" xmlns="http://www.w3.org/2000/svg">
<path fill-rule="evenodd" clip-rule="evenodd" d="M8.64844 1.74012C7.76201 1.74012 6.88427 1.91472 6.06532 2.25394C5.24638 2.59316 4.50226 3.09036 3.87547 3.71715C3.24867 4.34395 2.75147 5.08806 2.41225 5.90701C2.07303 6.72596 1.89844 7.6037 1.89844 8.49012C1.89844 9.37655 2.07303 10.2543 2.41225 11.0732C2.75147 11.8922 3.24867 12.6363 3.87547 13.2631C4.50226 13.8899 5.24638 14.3871 6.06532 14.7263C6.88427 15.0655 7.76201 15.2401 8.64844 15.2401C10.4386 15.2401 12.1555 14.529 13.4214 13.2631C14.6873 11.9972 15.3984 10.2803 15.3984 8.49012C15.3984 6.69991 14.6873 4.98302 13.4214 3.71715C12.1555 2.45128 10.4386 1.74012 8.64844 1.74012ZM0.398438 8.49012C0.398612 7.16522 0.717878 5.85985 1.32923 4.68442C1.94058 3.509 2.82602 2.4981 3.91067 1.73724C4.99532 0.976386 6.24727 0.487948 7.5606 0.313248C8.87394 0.138547 10.21 0.282723 11.4559 0.733579C12.7017 1.18444 13.8206 1.92871 14.718 2.90344C15.6153 3.87818 16.2648 5.0547 16.6113 6.33348C16.9578 7.61227 16.9912 8.9557 16.7088 10.2501C16.4263 11.5446 15.8362 12.752 14.9884 13.7701L17.6784 16.4601C17.7521 16.5288 17.8112 16.6116 17.8522 16.7036C17.8932 16.7956 17.9153 16.8949 17.917 16.9956C17.9188 17.0963 17.9003 17.1963 17.8626 17.2897C17.8248 17.3831 17.7687 17.4679 17.6975 17.5392C17.6263 17.6104 17.5414 17.6665 17.448 17.7042C17.3546 17.742 17.2546 17.7605 17.1539 17.7587C17.0532 17.7569 16.9539 17.7349 16.8619 17.6939C16.7699 17.6529 16.6871 17.5938 16.6184 17.5201L13.9284 14.8301C12.7237 15.8336 11.2579 16.473 9.70276 16.6734C8.14766 16.8738 6.56766 16.6268 5.14785 15.9615C3.72804 15.2962 2.52722 14.2401 1.68607 12.9169C0.844917 11.5936 0.398265 10.0581 0.398438 8.49012Z" fill="#0E5782"/>
</svg>
