<svg width="12" height="12" viewBox="0 0 12 12" fill="none" xmlns="http://www.w3.org/2000/svg">
<path d="M8.5762 3.2794C8.82601 3.0309 8.82601 2.62593 8.5762 2.37743L7.65713 1.45836L7.65844 1.45967C7.4152 1.21643 6.99708 0.79831 6.40541 0.20795C6.12666 -0.0642208 5.67567 -0.0615911 5.39956 0.214524L0.221743 5.38839C0.155497 5.45419 0.102921 5.53244 0.0670435 5.61864C0.031166 5.70484 0.0126953 5.79729 0.0126953 5.89066C0.0126953 5.98403 0.031166 6.07648 0.0670435 6.16268C0.102921 6.24888 0.155497 6.32713 0.221743 6.39293L5.39824 11.5655C5.53171 11.6987 5.71258 11.7735 5.90117 11.7735C6.08975 11.7735 6.27063 11.6987 6.40409 11.5655L8.57488 9.39601C8.8247 9.1475 8.8247 8.74253 8.57488 8.49403C8.45489 8.37464 8.29251 8.30761 8.12324 8.30761C7.95397 8.30761 7.79158 8.37464 7.67159 8.49403L6.02805 10.1402C5.95968 10.2086 5.85318 10.2086 5.7848 10.1402L1.64965 6.009C1.58128 5.94062 1.58128 5.83412 1.64965 5.76575L5.78349 1.63454C5.78875 1.62928 5.79532 1.62534 5.80058 1.62008C5.86895 1.56617 5.96362 1.57143 6.02673 1.63454L7.67291 3.2794C7.92272 3.52922 8.32769 3.52922 8.5762 3.2794V3.2794ZM4.53045 5.91696C4.53045 6.28729 4.67771 6.64246 4.93982 6.90433C5.20193 7.1662 5.55744 7.31331 5.92812 7.31331C6.29881 7.31331 6.65431 7.1662 6.91642 6.90433C7.17854 6.64246 7.32579 6.28729 7.32579 5.91696C7.32579 5.54662 7.17854 5.19145 6.91642 4.92959C6.65431 4.66772 6.29881 4.5206 5.92812 4.5206C5.55744 4.5206 5.20193 4.66772 4.93982 4.92959C4.67771 5.19145 4.53045 5.54662 4.53045 5.91696ZM11.5806 5.40943L9.96466 3.80139C9.71484 3.55289 9.30987 3.55289 9.06137 3.8027C9.00198 3.86183 8.95485 3.93211 8.92269 4.00951C8.89053 4.0869 8.87398 4.16988 8.87398 4.25369C8.87398 4.3375 8.89053 4.42048 8.92269 4.49788C8.95485 4.57527 9.00198 4.64555 9.06137 4.70468L10.1527 5.79468C10.2211 5.86305 10.2211 5.96955 10.1527 6.03792L9.07715 7.11214C9.01776 7.17127 8.97063 7.24155 8.93847 7.31894C8.90631 7.39634 8.88976 7.47932 8.88976 7.56313C8.88976 7.64694 8.90631 7.72992 8.93847 7.80731C8.97063 7.88471 9.01776 7.95499 9.07715 8.01412C9.19714 8.13351 9.35952 8.20053 9.52879 8.20053C9.69806 8.20053 9.86045 8.13351 9.98044 8.01412L11.5819 6.41396C11.6479 6.348 11.7003 6.26965 11.7359 6.18342C11.7716 6.09718 11.7899 6.00475 11.7898 5.91142C11.7897 5.8181 11.7711 5.72572 11.7352 5.63957C11.6993 5.55343 11.6468 5.47522 11.5806 5.40943V5.40943Z" fill="#1890FF"/>
</svg>
