<svg width="32" height="32" viewBox="0 0 32 32" fill="none" xmlns="http://www.w3.org/2000/svg">
<g clip-path="url(#clip0_88_5733)">
<path d="M13.7667 26.244C13.6817 25.8921 13.5148 25.5653 13.2795 25.2901C13.0442 25.015 12.7473 24.7994 12.4128 24.6608C12.0784 24.5223 11.7159 24.4647 11.355 24.4928C10.9941 24.5209 10.6449 24.634 10.336 24.8227C8.27867 26.076 5.92267 23.7213 7.176 21.6627C7.36414 21.3538 7.47673 21.0049 7.50465 20.6443C7.53256 20.2837 7.47499 19.9216 7.33663 19.5875C7.19827 19.2533 6.98301 18.9566 6.70836 18.7213C6.43371 18.486 6.10742 18.3188 5.756 18.2333C3.41467 17.6653 3.41467 14.3347 5.756 13.7667C6.10773 13.6814 6.43437 13.5144 6.70933 13.2791C6.98429 13.0437 7.19981 12.7468 7.33833 12.4125C7.47685 12.0781 7.53447 11.7158 7.50649 11.355C7.47852 10.9941 7.36574 10.645 7.17733 10.336C5.924 8.27867 8.27867 5.92267 10.3373 7.176C11.6707 7.98667 13.3987 7.26933 13.7667 5.756C14.3347 3.41467 17.6653 3.41467 18.2333 5.756C18.3186 6.10773 18.4856 6.43437 18.7209 6.70933C18.9563 6.98429 19.2532 7.19981 19.5875 7.33833C19.9219 7.47685 20.2842 7.53447 20.645 7.50649C21.0059 7.47852 21.355 7.36574 21.664 7.17733C23.7213 5.924 26.0773 8.27867 24.824 10.3373C24.6359 10.6462 24.5233 10.9951 24.4954 11.3557C24.4674 11.7163 24.525 12.0784 24.6634 12.4125C24.8017 12.7467 25.017 13.0434 25.2916 13.2787C25.5663 13.514 25.8926 13.6812 26.244 13.7667C26.5547 13.8353 26.8471 13.9697 27.1015 14.1608C27.3558 14.3519 27.5663 14.5953 27.7187 14.8747" stroke="white" stroke-width="1.6" stroke-linecap="round" stroke-linejoin="round"/>
<path d="M19.8565 14.9248C19.6818 14.2964 19.3562 13.7203 18.908 13.2465C18.4598 12.7728 17.9026 12.4158 17.2849 12.2066C16.6672 11.9974 16.0077 11.9423 15.3639 12.0462C14.72 12.1501 14.1113 12.4098 13.5908 12.8027C13.0703 13.1956 12.6536 13.7098 12.3772 14.3005C12.1008 14.8911 11.9729 15.5404 12.0048 16.1918C12.0366 16.8432 12.2272 17.477 12.5599 18.0379C12.8926 18.5988 13.3574 19.0698 13.9138 19.4101" stroke="white" stroke-width="1.6" stroke-linecap="round" stroke-linejoin="round"/>
<path d="M19.5284 23.7639L19.5282 23.7643C19.2287 24.4669 19.0861 25.1463 19.0861 25.8079C19.0861 27.3902 19.5682 28.6633 20.5068 29.6841L19.5284 23.7639ZM19.5284 23.7639C19.8432 23.0242 20.2373 22.3127 20.7119 21.6291L19.5284 23.7639ZM24.1252 18.0132L24.1248 18.0128C24.0889 17.9787 24.0597 17.9614 24.0371 17.9517C24.0179 17.9434 24.0076 17.9426 24.0004 17.9426C23.9934 17.9426 23.9833 17.9433 23.9646 17.9513C23.939 17.9626 23.9093 17.9807 23.8749 18.013C23.3902 18.4736 22.8602 19.0195 22.2846 19.6526C21.7229 20.2704 21.1988 20.929 20.7122 21.6287L24.1252 18.0132ZM24.1252 18.0132C24.6099 18.4725 25.14 19.0183 25.716 19.6524L25.7165 19.6529M24.1252 18.0132L25.7165 19.6529M25.7165 19.6529C26.2787 20.2708 26.8029 20.9291 27.2889 21.6282M25.7165 19.6529L27.2889 21.6282M27.2889 21.6282C27.7641 22.3117 28.1584 23.0235 28.4732 23.7637M27.2889 21.6282L28.4732 23.7637M28.4732 23.7637C28.7724 24.4671 28.9147 25.1467 28.9147 25.8079M28.4732 23.7637L28.9147 25.8079M28.9147 25.8079C28.9147 27.3897 28.4321 28.6625 27.4923 29.6834L28.9147 25.8079ZM23.998 31.1997C22.5857 31.1997 21.4406 30.6992 20.5069 29.6842L27.4922 29.6835C26.5554 30.6993 25.4095 31.1997 23.998 31.1997Z" stroke="white" stroke-width="1.6"/>
</g>
<defs>
<clipPath id="clip0_88_5733">
<rect width="32" height="32" fill="white"/>
</clipPath>
</defs>
</svg>
