<svg width="32" height="32" viewBox="0 0 32 32" fill="none" xmlns="http://www.w3.org/2000/svg">
<g clip-path="url(#clip0_88_5564)">
<path d="M10.6699 16.9984C10.6699 17.6172 11.2318 18.2107 12.232 18.6483C13.2322 19.0859 14.5888 19.3317 16.0033 19.3317C17.4177 19.3317 18.7743 19.0859 19.7745 18.6483C20.7747 18.2107 21.3366 17.6172 21.3366 16.9984C21.3366 16.3795 20.7747 15.786 19.7745 15.3485C18.7743 14.9109 17.4177 14.665 16.0033 14.665C14.5888 14.665 13.2322 14.9109 12.232 15.3485C11.2318 15.786 10.6699 16.3795 10.6699 16.9984Z" stroke="white" stroke-width="1.6" stroke-linecap="round" stroke-linejoin="round"/>
<path d="M10.6699 16.665V21.665C10.6699 22.953 13.0566 23.9984 16.0033 23.9984C18.9499 23.9984 21.3366 22.953 21.3366 21.665V16.665" stroke="white" stroke-width="1.6" stroke-linecap="round" stroke-linejoin="round"/>
<path d="M18.6699 4V9.33333C18.6699 9.68696 18.8104 10.0261 19.0604 10.2761C19.3105 10.5262 19.6496 10.6667 20.0033 10.6667H25.3366" stroke="white" stroke-width="1.6" stroke-linecap="round" stroke-linejoin="round"/>
<path d="M22.6699 28H9.33659C8.62934 28 7.95107 27.719 7.45097 27.219C6.95087 26.7189 6.66992 26.0406 6.66992 25.3333V6.66667C6.66992 5.95942 6.95087 5.28115 7.45097 4.78105C7.95107 4.28095 8.62934 4 9.33659 4H18.6699L25.3366 10.6667V25.3333C25.3366 26.0406 25.0556 26.7189 24.5555 27.219C24.0554 27.719 23.3772 28 22.6699 28Z" stroke="white" stroke-width="1.6" stroke-linecap="round" stroke-linejoin="round"/>
</g>
<defs>
<clipPath id="clip0_88_5564">
<rect width="32" height="32" fill="white"/>
</clipPath>
</defs>
</svg>
