<svg width="32" height="32" viewBox="0 0 32 32" fill="none" xmlns="http://www.w3.org/2000/svg">
<path d="M10.6667 28.0101H8C6.93913 28.0101 5.92172 27.5887 5.17157 26.8385C4.42143 26.0884 4 25.071 4 24.0101V22.6768H11.3333" stroke="white" stroke-width="1.6" stroke-linecap="round" stroke-linejoin="round"/>
<path d="M22.6621 11.3333V6.66667C22.6621 6.13925 22.8185 5.62368 23.1115 5.18515C23.4045 4.74662 23.821 4.40482 24.3083 4.20299C24.7956 4.00116 25.3317 3.94835 25.849 4.05124C26.3663 4.15413 26.8415 4.40811 27.2144 4.78105C27.5873 5.15399 27.8413 5.62914 27.9442 6.14643C28.0471 6.66371 27.9943 7.19989 27.7925 7.68716C27.5906 8.17443 27.2488 8.5909 26.8103 8.88392C26.3718 9.17694 25.8562 9.33334 25.3288 9.33334H22.6621" stroke="white" stroke-width="1.6" stroke-linecap="round" stroke-linejoin="round"/>
<path d="M25.3288 4H10.6621C9.60124 4 8.58383 4.42143 7.83368 5.17157C7.08354 5.92172 6.66211 6.93913 6.66211 8V22.6667" stroke="white" stroke-width="1.6" stroke-linecap="round" stroke-linejoin="round"/>
<path d="M12 9.32324H17.3333" stroke="white" stroke-width="1.6" stroke-linecap="round" stroke-linejoin="round"/>
<path d="M12 14.6768H17.3333" stroke="white" stroke-width="1.6" stroke-linecap="round" stroke-linejoin="round"/>
<path d="M24.56 16.8153C25.0851 16.2901 25.7974 15.9951 26.54 15.9951C27.2826 15.9951 27.9949 16.2901 28.52 16.8153C29.0451 17.3404 29.3401 18.0526 29.3401 18.7953C29.3401 19.5379 29.0451 20.2501 28.52 20.7753L20 29.3353H16V25.3353L24.56 16.8153Z" stroke="white" stroke-width="1.6" stroke-linecap="round" stroke-linejoin="round"/>
</svg>
