<svg width="32" height="32" viewBox="0 0 32 32" fill="none" xmlns="http://www.w3.org/2000/svg">
<g clip-path="url(#clip0_88_5538)">
<path d="M6.6722 5.33496H12.0055C12.3592 5.33496 12.6983 5.47544 12.9483 5.72549C13.1984 5.97553 13.3389 6.31467 13.3389 6.66829V14.6683C13.3389 15.0219 13.1984 15.3611 12.9483 15.6111C12.6983 15.8611 12.3592 16.0016 12.0055 16.0016H6.6722C6.31858 16.0016 5.97944 15.8611 5.72939 15.6111C5.47934 15.3611 5.33887 15.0219 5.33887 14.6683V6.66829C5.33887 6.31467 5.47934 5.97553 5.72939 5.72549C5.97944 5.47544 6.31858 5.33496 6.6722 5.33496Z" stroke="white" stroke-width="1.6" stroke-linecap="round" stroke-linejoin="round"/>
<path d="M6.6722 21.335H12.0055C12.3592 21.335 12.6983 21.4754 12.9483 21.7255C13.1984 21.9755 13.3389 22.3147 13.3389 22.6683V25.335C13.3389 25.6886 13.1984 26.0277 12.9483 26.2778C12.6983 26.5278 12.3592 26.6683 12.0055 26.6683H6.6722C6.31858 26.6683 5.97944 26.5278 5.72939 26.2778C5.47934 26.0277 5.33887 25.6886 5.33887 25.335V22.6683C5.33887 22.3147 5.47934 21.9755 5.72939 21.7255C5.97944 21.4754 6.31858 21.335 6.6722 21.335Z" stroke="white" stroke-width="1.6" stroke-linecap="round" stroke-linejoin="round"/>
<path d="M19.9945 16H25.3278C25.6814 16 26.0206 16.1405 26.2706 16.3905C26.5207 16.6406 26.6611 16.9797 26.6611 17.3333V25.3333C26.6611 25.687 26.5207 26.0261 26.2706 26.2761C26.0206 26.5262 25.6814 26.6667 25.3278 26.6667H19.9945C19.6408 26.6667 19.3017 26.5262 19.0517 26.2761C18.8016 26.0261 18.6611 25.687 18.6611 25.3333V17.3333C18.6611 16.9797 18.8016 16.6406 19.0517 16.3905C19.3017 16.1405 19.6408 16 19.9945 16Z" stroke="white" stroke-width="1.6" stroke-linecap="round" stroke-linejoin="round"/>
<path d="M19.9945 5.33496H25.3278C25.6814 5.33496 26.0206 5.47544 26.2706 5.72549C26.5207 5.97553 26.6611 6.31467 26.6611 6.66829V9.33496C26.6611 9.68858 26.5207 10.0277 26.2706 10.2778C26.0206 10.5278 25.6814 10.6683 25.3278 10.6683H19.9945C19.6408 10.6683 19.3017 10.5278 19.0517 10.2778C18.8016 10.0277 18.6611 9.68858 18.6611 9.33496V6.66829C18.6611 6.31467 18.8016 5.97553 19.0517 5.72549C19.3017 5.47544 19.6408 5.33496 19.9945 5.33496Z" stroke="white" stroke-width="1.6" stroke-linecap="round" stroke-linejoin="round"/>
</g>
<defs>
<clipPath id="clip0_88_5538">
<rect width="32" height="32" fill="white"/>
</clipPath>
</defs>
</svg>
