<svg width="32" height="32" viewBox="0 0 32 32" fill="none" xmlns="http://www.w3.org/2000/svg">
<g clip-path="url(#clip0_88_5740)">
<path d="M6.66113 28H25.3278" stroke="white" stroke-width="1.6" stroke-linecap="round" stroke-linejoin="round"/>
<path d="M22.6611 28V21.3333H23.9945C24.3481 21.3333 24.6872 21.1929 24.9373 20.9428C25.1873 20.6928 25.3278 20.3536 25.3278 20V17.3333C25.3278 16.9797 25.1873 16.6406 24.9373 16.3905C24.6872 16.1405 24.3481 16 23.9945 16H22.6611V10.6667C22.6611 8.89856 21.9588 7.20286 20.7085 5.95262C19.4583 4.70238 17.7626 4 15.9945 4C14.2264 4 12.5307 4.70238 11.2804 5.95262C10.0302 7.20286 9.3278 8.89856 9.3278 10.6667V16H7.99447C7.64084 16 7.30171 16.1405 7.05166 16.3905C6.80161 16.6406 6.66113 16.9797 6.66113 17.3333V20C6.66113 20.3536 6.80161 20.6928 7.05166 20.9428C7.30171 21.1929 7.64084 21.3333 7.99447 21.3333H9.3278V28" stroke="white" stroke-width="1.6" stroke-linecap="round" stroke-linejoin="round"/>
<path d="M13.3389 18.6667C13.3389 19.3739 13.6198 20.0522 14.1199 20.5523C14.62 21.0524 15.2983 21.3333 16.0055 21.3333C16.7128 21.3333 17.3911 21.0524 17.8912 20.5523C18.3912 20.0522 18.6722 19.3739 18.6722 18.6667C18.6722 17.9594 18.3912 17.2811 17.8912 16.781C17.3911 16.281 16.7128 16 16.0055 16C15.2983 16 14.62 16.281 14.1199 16.781C13.6198 17.2811 13.3389 17.9594 13.3389 18.6667Z" stroke="white" stroke-width="1.6" stroke-linecap="round" stroke-linejoin="round"/>
<path d="M8 10.665H24" stroke="white" stroke-width="1.6" stroke-linecap="round" stroke-linejoin="round"/>
</g>
<defs>
<clipPath id="clip0_88_5740">
<rect width="32" height="32" fill="white"/>
</clipPath>
</defs>
</svg>
