<svg width="22" height="22" viewBox="0 0 22 22" fill="none" xmlns="http://www.w3.org/2000/svg">
<path d="M8.40717 16.8799H6.41613V1.37503C6.41613 0.616013 5.80103 0 5.0411 0C4.28117 0 3.66607 0.616013 3.66607 1.37503V16.8799H1.8327C1.32669 16.8799 0.916016 17.2905 0.916016 17.7965C0.916016 18.0395 1.01227 18.2723 1.1846 18.4446L4.47184 21.7319C4.83026 22.0894 5.41053 22.0894 5.76803 21.7319L9.05527 18.4446C9.41278 18.0862 9.41278 17.5059 9.05527 17.1484C8.88385 16.977 8.65009 16.8799 8.40717 16.8799Z" fill="#3691D6"/>
<path d="M20.6248 0.916672H10.5412C9.78128 0.916672 9.16619 1.53268 9.16619 2.2917C9.16619 3.05072 9.78128 3.66673 10.5412 3.66673H20.6248C21.3847 3.66673 21.9998 3.05072 21.9998 2.2917C21.9998 1.53268 21.3847 0.916672 20.6248 0.916672Z" fill="#3691D6"/>
<path d="M16.958 6.41679H10.5412C9.78128 6.41679 9.16619 7.0328 9.16619 7.79181C9.16619 8.55083 9.78128 9.16684 10.5412 9.16684H16.958C17.718 9.16684 18.333 8.55083 18.333 7.79181C18.333 7.0328 17.718 6.41679 16.958 6.41679Z" fill="#3691D6"/>
<path d="M13.2913 11.9169H10.5412C9.78128 11.9169 9.16619 12.5329 9.16619 13.2919C9.16619 14.0509 9.78128 14.667 10.5412 14.667H13.2913C14.0512 14.667 14.6663 14.0509 14.6663 13.2919C14.6663 12.5329 14.0512 11.9169 13.2913 11.9169Z" fill="#3691D6"/>
</svg>
