<svg width="13" height="12" viewBox="0 0 13 12" fill="none" xmlns="http://www.w3.org/2000/svg">
<path d="M9.4551 3.2794C9.70492 3.0309 9.70492 2.62593 9.4551 2.37743L8.53603 1.45836L8.53735 1.45967C8.2941 1.21643 7.87599 0.79831 7.28431 0.20795C7.00557 -0.0642208 6.55458 -0.0615911 6.27846 0.214524L1.10065 5.38839C1.0344 5.45419 0.981827 5.53244 0.94595 5.61864C0.910072 5.70484 0.891602 5.79729 0.891602 5.89066C0.891602 5.98403 0.910072 6.07648 0.94595 6.16268C0.981827 6.24888 1.0344 6.32713 1.10065 6.39293L6.27715 11.5655C6.41061 11.6987 6.59149 11.7735 6.78007 11.7735C6.96866 11.7735 7.14953 11.6987 7.283 11.5655L9.45379 9.39601C9.70361 9.1475 9.70361 8.74253 9.45379 8.49403C9.3338 8.37464 9.17141 8.30761 9.00214 8.30761C8.83287 8.30761 8.67049 8.37464 8.5505 8.49403L6.90695 10.1402C6.83858 10.2086 6.73208 10.2086 6.66371 10.1402L2.52856 6.009C2.46019 5.94062 2.46019 5.83412 2.52856 5.76575L6.6624 1.63454C6.66765 1.62928 6.67423 1.62534 6.67949 1.62008C6.74786 1.56617 6.84253 1.57143 6.90564 1.63454L8.55181 3.2794C8.80163 3.52922 9.2066 3.52922 9.4551 3.2794V3.2794ZM5.40936 5.91696C5.40936 6.28729 5.55661 6.64246 5.81873 6.90433C6.08084 7.1662 6.43634 7.31331 6.80703 7.31331C7.17771 7.31331 7.53321 7.1662 7.79533 6.90433C8.05744 6.64246 8.2047 6.28729 8.2047 5.91696C8.2047 5.54662 8.05744 5.19145 7.79533 4.92959C7.53321 4.66772 7.17771 4.5206 6.80703 4.5206C6.43634 4.5206 6.08084 4.66772 5.81873 4.92959C5.55661 5.19145 5.40936 5.54662 5.40936 5.91696ZM12.4595 5.40943L10.8436 3.80139C10.5937 3.55289 10.1888 3.55289 9.94028 3.8027C9.88088 3.86183 9.83375 3.93211 9.8016 4.00951C9.76944 4.0869 9.75288 4.16988 9.75288 4.25369C9.75288 4.3375 9.76944 4.42048 9.8016 4.49788C9.83375 4.57527 9.88088 4.64555 9.94028 4.70468L11.0316 5.79468C11.1 5.86305 11.1 5.96955 11.0316 6.03792L9.95605 7.11214C9.89666 7.17127 9.84953 7.24155 9.81737 7.31894C9.78522 7.39634 9.76866 7.47932 9.76866 7.56313C9.76866 7.64694 9.78522 7.72992 9.81737 7.80731C9.84953 7.88471 9.89666 7.95499 9.95605 8.01412C10.076 8.13351 10.2384 8.20053 10.4077 8.20053C10.577 8.20053 10.7394 8.13351 10.8593 8.01412L12.4608 6.41396C12.5268 6.348 12.5792 6.26965 12.6149 6.18342C12.6505 6.09718 12.6688 6.00475 12.6687 5.91142C12.6686 5.8181 12.65 5.72572 12.6141 5.63957C12.5782 5.55343 12.5257 5.47522 12.4595 5.40943V5.40943Z" fill="black" fill-opacity="0.85"/>
</svg>
